<?xml version="1.0" standalone="no"?>
<!DOCTYPE svg PUBLIC "-//W3C//DTD SVG 1.0//EN" "http://www.w3.org/TR/2001/REC-SVG-20010904/DTD/svg10.dtd">
<svg xmlns="http://www.w3.org/2000/svg" xmlns:xlink="http://www.w3.org/1999/xlink" id="body_1" width="435" height="352">

<g transform="matrix(0.4697624 0 0 0.4699599 0 0)">
    <path transform="matrix(1 0 0 1 0 0)"  d="M321.8841 226.9355C 321.8841 203.7453 313.6851 183.9512 297.2872 167.5533C 280.8892 151.1553 261.0952 142.9563 237.905 142.9563C 214.7148 142.9563 194.9207 151.1553 178.5227 167.5533C 162.1248 183.9512 153.9258 203.7453 153.9258 226.9355C 153.9258 250.1257 162.1248 269.9198 178.5227 286.3177C 194.9207 302.7157 214.7148 310.9146 237.905 310.9146C 261.0952 310.9146 280.8892 302.7157 297.2872 286.3177C 313.6851 269.9198 321.8841 250.1257 321.8841 226.9355" stroke="none" fill="#FF6584" fill-rule="nonzero" />
    <path transform="matrix(1 0 0 1 -137 -75.5)"  d="M1063 276.46L1063 497.34C 1063.002 583.8013 1028.657 666.722 967.5193 727.8594C 906.382 788.9967 823.4613 823.3423 737 823.34L737 823.34L137 823.34L137 602.46C 137 484.43 199.73 381.04 293.68 323.83C 309.8695 313.9623 326.8951 305.5365 344.56 298.65C 354.956 294.5887 365.5569 291.0739 376.32 288.12C 376.53 288.05 376.75 287.99 376.96 287.94C 380.14 287.07 383.34 286.2501 386.56 285.48C 386.74 285.4301 386.91 285.39 387.09 285.35C 406.9354 280.6216 427.1811 277.7657 447.56 276.82C 449.97 276.71 452.38 276.62 454.81 276.57C 455.68 276.54 456.56 276.5201 457.45 276.5201C 459.29 276.48 461.14 276.4601 463 276.4601L463 276.4601L1063 276.46z" stroke="none" fill="#3F3D56" fill-rule="nonzero" />
    <path transform="matrix(1 0 0 1 -137 -75.5)"  d="M569 681C 330.9137 681 137.819 745.2013 137.0095 824.5L137.0095 824.5L1000.991 824.5C 1000.181 745.2013 807.0863 681 569 681z" stroke="none" fill="#F2F2F2" fill-rule="nonzero" />
    <path transform="matrix(1 0 0 1 0 0)"  d="M272 692C 272 679.727 307.8172 669.7778 352 669.7778C 396.1828 669.7778 432 679.727 432 692C 432 704.273 396.1828 714.2222 352 714.2222C 307.8172 714.2222 272 704.273 272 692" stroke="none" fill="#000000" fill-rule="nonzero" fill-opacity="0.09803922" />
    <path transform="matrix(1 0 0 1 0 0)"  d="M445 652C 445 639.727 480.8172 629.7778 525 629.7778C 569.1828 629.7778 605 639.727 605 652C 605 664.273 569.1828 674.2222 525 674.2222C 480.8172 674.2222 445 664.273 445 652" stroke="none" fill="#000000" fill-rule="nonzero" fill-opacity="0.09803922" />
    <path transform="matrix(1 0 0 1 0 0)"  d="M280 692C 280 680.9543 312.2355 672 352 672C 391.7645 672 424 680.9543 424 692C 424 703.0457 391.7645 712 352 712C 312.2355 712 280 703.0457 280 692" stroke="none" fill="#000000" fill-rule="nonzero" fill-opacity="0.09803922" />
    <path transform="matrix(1 0 0 1 0 0)"  d="M453 652C 453 640.9543 485.2355 632 525 632C 564.7645 632 597 640.9543 597 652C 597 663.0457 564.7645 672 525 672C 485.2355 672 453 663.0457 453 652" stroke="none" fill="#000000" fill-rule="nonzero" fill-opacity="0.09803922" />
    <path transform="matrix(1 0 0 1 0 0)"  d="M145 290C 145 288.067 144.3166 286.4171 142.9498 285.0503C 141.5829 283.6834 139.933 283 138 283C 136.067 283 134.4171 283.6834 133.0502 285.0503C 131.6834 286.4171 131 288.067 131 290C 131 291.933 131.6834 293.5829 133.0502 294.9497C 134.4171 296.3166 136.067 297 138 297C 139.933 297 141.5829 296.3166 142.9498 294.9497C 144.3166 293.5829 145 291.933 145 290" stroke="none" fill="#F2F2F2" fill-rule="nonzero" />
    <path transform="matrix(1 0 0 1 0 0)"  d="M747 564C 747 562.067 746.3166 560.4171 744.9498 559.0502C 743.5829 557.6834 741.933 557 740 557C 738.067 557 736.4171 557.6834 735.0502 559.0502C 733.6835 560.4171 733 562.067 733 564C 733 565.933 733.6835 567.5829 735.0502 568.9498C 736.4171 570.3167 738.067 571 740 571C 741.933 571 743.5829 570.3167 744.9498 568.9498C 746.3166 567.5829 747 565.933 747 564" stroke="none" fill="#F2F2F2" fill-rule="nonzero" />
    <path transform="matrix(1 0 0 1 0 0)"  d="M417 339C 417 337.067 416.3166 335.4171 414.9497 334.0503C 413.5829 332.6834 411.933 332 410 332C 408.067 332 406.4171 332.6834 405.0503 334.0503C 403.6834 335.4171 403 337.067 403 339C 403 340.933 403.6834 342.5829 405.0503 343.9497C 406.4171 345.3166 408.067 346 410 346C 411.933 346 413.5829 345.3166 414.9497 343.9497C 416.3166 342.5829 417 340.933 417 339" stroke="none" fill="#F2F2F2" fill-rule="nonzero" />
    <path transform="matrix(1 0 0 1 0 0)"  d="M761 297C 761 295.8954 760.6095 294.9526 759.8284 294.1716C 759.0474 293.3905 758.1046 293 757 293C 755.8954 293 754.9526 293.3905 754.1716 294.1716C 753.3905 294.9526 753 295.8954 753 297C 753 298.1046 753.3905 299.0474 754.1716 299.8284C 754.9526 300.6095 755.8954 301 757 301C 758.1046 301 759.0474 300.6095 759.8284 299.8284C 760.6095 299.0474 761 298.1046 761 297" stroke="none" fill="#FF6584" fill-rule="nonzero" />
    <path transform="matrix(1 0 0 1 0 0)"  d="M158 497C 158 495.8954 157.6095 494.9526 156.8284 494.1716C 156.0474 493.3906 155.1046 493 154 493C 152.8954 493 151.9526 493.3906 151.1716 494.1716C 150.3905 494.9526 150 495.8954 150 497C 150 498.1046 150.3905 499.0474 151.1716 499.8284C 151.9526 500.6095 152.8954 501 154 501C 155.1046 501 156.0474 500.6095 156.8284 499.8284C 157.6095 499.0474 158 498.1046 158 497" stroke="none" fill="#FF6584" fill-rule="nonzero" />
    <path transform="matrix(1 0 0 1 0 0)"  d="M94 581.322L92.178 581.322L92.178 579.5L91.822 579.5L91.822 581.322L90 581.322L90 581.678L91.822 581.678L91.822 583.5L92.178 583.5L92.178 581.678L94 581.678L94 581.322" stroke="none" fill="#F2F2F2" fill-rule="nonzero" />
    <path transform="matrix(1 0 0 1 0 0)"  d="M679 433.322L677.178 433.322L677.178 431.5L676.822 431.5L676.822 433.322L675 433.322L675 433.678L676.822 433.678L676.822 435.5L677.178 435.5L677.178 433.678L679 433.678L679 433.322" stroke="none" fill="#F2F2F2" fill-rule="nonzero" />
    <path transform="matrix(1 0 0 1 0 0)"  d="M830 403.322L828.178 403.322L828.178 401.5L827.822 401.5L827.822 403.322L826 403.322L826 403.678L827.822 403.678L827.822 405.5L828.178 405.5L828.178 403.678L830 403.678L830 403.322" stroke="none" fill="#F2F2F2" fill-rule="nonzero" />
    <path transform="matrix(1 0 0 1 0 0)"  d="M505 483.322L503.178 483.322L503.178 481.5L502.822 481.5L502.822 483.322L501 483.322L501 483.678L502.822 483.678L502.822 485.5L503.178 485.5L503.178 483.678L505 483.678L505 483.322" stroke="none" fill="#F2F2F2" fill-rule="nonzero" />
    <path transform="matrix(1 0 0 1 0 0)"  d="M786 493.322L784.178 493.322L784.178 491.5L783.822 491.5L783.822 493.322L782 493.322L782 493.678L783.822 493.678L783.822 495.5L784.178 495.5L784.178 493.678L786 493.678L786 493.322" stroke="none" fill="#F2F2F2" fill-rule="nonzero" />
    <path transform="matrix(1 0 0 1 0 0)"  d="M447 536.322L445.178 536.322L445.178 534.5L444.822 534.5L444.822 536.322L443 536.322L443 536.678L444.822 536.678L444.822 538.5L445.178 538.5L445.178 536.678L447 536.678L447 536.322" stroke="none" fill="#F2F2F2" fill-rule="nonzero" />
    <path transform="matrix(1 0 0 1 0 0)"  d="M575 538.322L573.178 538.322L573.178 536.5L572.822 536.5L572.822 538.322L571 538.322L571 538.678L572.822 538.678L572.822 540.5L573.178 540.5L573.178 538.678L575 538.678L575 538.322" stroke="none" fill="#F2F2F2" fill-rule="nonzero" />
    <path transform="matrix(1 0 0 1 0 0)"  d="M96 368.322L94.178 368.322L94.178 366.5L93.822 366.5L93.822 368.322L92 368.322L92 368.678L93.822 368.678L93.822 370.5L94.178 370.5L94.178 368.678L96 368.678L96 368.322" stroke="none" fill="#F2F2F2" fill-rule="nonzero" />
    <path transform="matrix(1 0 0 1 0 0)"  d="M676.9971 230.6892L679.8715 230.6892L679.8715 288.7526L676.9971 288.7526L676.9971 230.6892z" stroke="none" fill="#E6E6E6" fill-rule="nonzero" />
    <path transform="matrix(1 0 0 1 0 0)"  d="M611.748 385.046L585.303 445.984L590.477 454.607L588.752 457.481L600.825 463.805L600.825 460.356L605.424 459.206L624.97 423.563L611.748 385.046" stroke="none" fill="#E6E6E6" fill-rule="nonzero" />
    <path transform="matrix(1 0 0 1 -137 -75.5)"  d="M728.0517 532.4066C 728.0517 532.4066 708.5056 562.8755 730.3513 567.4745L730.3513 567.4745L728.0517 532.4066z" stroke="none" fill="#E6E6E6" fill-rule="nonzero" />
    <path transform="matrix(1 0 0 1 -137 -75.5)"  d="M756.2211 518.6093L749.3225 541.0298L746.4481 569.7741L741.274 580.1221L747.0229 626.6878L756.2211 635.886L760.2452 681.8768L760.2452 702.5727L771.168 721.5439L757.1022 741.5082C 755.7504 743.4195 755.5576 745.9188 756.6003 748.0148C 757.6431 750.1107 759.7528 751.4645 762.0927 751.5391C 765.1981 751.6207 769.2917 750.7432 774.6173 747.9886C 791.289 739.3654 790.7141 731.317 790.7141 731.317C 790.7141 731.317 801.0621 731.317 801.6369 723.2686L801.6369 723.2686L795.3132 698.5485L795.3132 565.7499L797.6127 565.7499L798.7625 623.2384L803.9365 644.5092L804.5114 653.7073L811.9849 745.689C 811.9849 745.689 845.3282 754.8871 847.0529 747.4136L847.0529 747.4136L855.6762 730.7419L855.6762 686.4758L852.8018 679.5772L847.6277 633.0115L856.251 623.8133L860.8501 618.0645L860.8501 572.0736L855.1013 554.2522L853.3766 539.3052L844.1784 516.3098C 844.1784 516.3098 783.2407 502.5125 756.2211 518.6093z" stroke="none" fill="#FFFFFF" fill-rule="nonzero" />
    <path transform="matrix(1 0 0 1 -137 -75.5)"  d="M830.9562 388.6852C 830.9567 407.6714 818.6954 424.4848 800.6176 430.2873C 782.5397 436.0898 762.7837 429.553 751.7344 414.113C 740.6852 398.6731 740.8721 377.8646 752.1969 362.6256L752.1969 362.6256L752.2084 362.6141C 763.4482 347.4944 783.1146 341.2833 800.9996 347.2045C 818.8847 353.1257 830.9594 369.8454 830.9562 388.6852z" stroke="none" fill="#6C63FF" fill-rule="nonzero" />
    <path transform="matrix(1 0 0 1 -137 -75.5)"  d="M824.7474 370.5706L821.1831 390.9847C 794.3991 321.4581 751.7945 364.1663 751.0586 364.9137C 760.0088 352.8773 774.5076 346.2736 789.4629 347.4216C 804.4182 348.5697 817.7392 357.3091 824.7474 370.5706z" stroke="none" fill="#000000" fill-rule="nonzero" fill-opacity="0.09803922" />
    <path transform="matrix(1 0 0 1 -137 -75.5)"  d="M825.8972 368.271L822.3329 388.6852C 795.5489 319.1586 752.9443 361.8668 752.2084 362.6141C 761.1586 350.5778 775.6573 343.974 790.6127 345.1221C 805.568 346.2702 818.8889 355.0096 825.8971 368.271L825.8971 368.271L825.8972 368.271z" stroke="none" fill="#FFFFFF" fill-rule="nonzero" />
    <path transform="matrix(1 0 0 1 -137 -75.5)"  d="M819.9079 359.6526L825.8972 380.4429C 825.8972 380.4429 813.4646 417.7064 755.8112 419.0052L755.8112 419.0052L753.9216 424.3282L747.5979 426.0528L744.7235 438.1254L752.7719 514.5851C 752.7719 514.5851 749.3226 522.0587 755.0715 521.4838C 755.0715 521.4838 793.0139 508.8363 825.7823 520.334C 825.7823 520.334 832.681 523.2084 830.9564 516.8846C 830.9564 516.8846 853.9518 502.5125 852.2271 487.5655C 850.5024 472.6185 853.9518 403.0573 853.9518 403.0573C 847.053 378.3373 831.855 357.0648 819.9079 359.6526z" stroke="none" fill="#FFFFFF" fill-rule="nonzero" />
    <path transform="matrix(1 0 0 1 -137 -75.5)"  d="M807.3044 504.9175C 807.3044 504.9175 771.2861 508.5346 781.2565 528.509L781.2565 528.509L807.3044 504.9175z" stroke="none" fill="#E6E6E6" fill-rule="nonzero" />
    <path transform="matrix(1 0 0 1 -137 -75.5)"  d="M825.7822 415.7048C 825.7822 415.7048 819.4585 423.1783 821.7581 435.2509L821.7581 435.2509L802.2119 502.5125L811.4101 515.16L852.8018 493.8892L862 488.1404C 859.7129 464.888 854.0215 442.0976 845.1082 420.5L845.1082 420.5L843.6037 416.8546C 843.6037 416.8546 832.6808 412.2555 825.7822 415.7048z" stroke="none" fill="#E6E6E6" fill-rule="nonzero" />
    <path transform="matrix(1 0 0 1 0 0)"  d="M696.5432 309.161C 696.5432 306.2242 695.5048 303.7173 693.4281 301.6407C 691.3514 299.564 688.8447 298.5256 685.9078 298.5256C 682.9709 298.5256 680.4641 299.564 678.3875 301.6407C 676.3108 303.7173 675.2724 306.2242 675.2724 309.161C 675.2724 312.0979 676.3108 314.6047 678.3875 316.6814C 680.4641 318.7581 682.9709 319.7964 685.9078 319.7964C 688.8447 319.7964 691.3514 318.7581 693.4281 316.6814C 695.5048 314.6047 696.5432 312.0979 696.5432 309.161" stroke="none" fill="#E6E6E6" fill-rule="nonzero" />
    <path transform="matrix(1 0 0 1 0 0)"  d="M686.1952 230.4017C 686.1952 228.2586 685.4375 226.4294 683.9221 224.9139C 682.4066 223.3985 680.5774 222.6408 678.4343 222.6408C 676.2912 222.6408 674.4619 223.3985 672.9465 224.9139C 671.431 226.4294 670.6733 228.2586 670.6733 230.4017C 670.6733 232.5449 671.431 234.3741 672.9465 235.8896C 674.4619 237.405 676.2912 238.1627 678.4343 238.1627C 680.5774 238.1627 682.4066 237.405 683.9221 235.8896C 685.4375 234.3741 686.1952 232.5449 686.1952 230.4017" stroke="none" fill="#E6E6E6" fill-rule="nonzero" />
    <path transform="matrix(1 0 0 1 0 0)"  d="M481 352.322L479.178 352.322L479.178 350.5L478.822 350.5L478.822 352.322L477 352.322L477 352.678L478.822 352.678L478.822 354.5L479.178 354.5L479.178 352.678L481 352.678L481 352.322" stroke="none" fill="#F2F2F2" fill-rule="nonzero" />
    <path transform="matrix(1 0 0 1 0 0)"  d="M645 296.322L643.178 296.322L643.178 294.5L642.822 294.5L642.822 296.322L641 296.322L641 296.678L642.822 296.678L642.822 298.5L643.178 298.5L643.178 296.678L645 296.678L645 296.322" stroke="none" fill="#F2F2F2" fill-rule="nonzero" />
    <path transform="matrix(1 0 0 1 0 0)"  d="M627 313.322L625.178 313.322L625.178 311.5L624.822 311.5L624.822 313.322L623 313.322L623 313.678L624.822 313.678L624.822 315.5L625.178 315.5L625.178 313.678L627 313.678L627 313.322" stroke="none" fill="#F2F2F2" fill-rule="nonzero" />
    <path transform="matrix(1 0 0 1 0 0)"  d="M560 267C 560 265.8954 559.6095 264.9526 558.8284 264.1716C 558.0474 263.3905 557.1046 263 556 263C 554.8954 263 553.9526 263.3905 553.1716 264.1716C 552.3905 264.9526 552 265.8954 552 267C 552 268.1046 552.3905 269.0474 553.1716 269.8284C 553.9526 270.6095 554.8954 271 556 271C 557.1046 271 558.0474 270.6095 558.8284 269.8284C 559.6095 269.0474 560 268.1046 560 267" stroke="none" fill="#F2F2F2" fill-rule="nonzero" />
    <path transform="matrix(1 0 0 1 -137 -75.5)"  d="M495.9578 370.6945C 495.9578 649.7385 460.8693 649.7385 417.5982 649.7385C 395.2269 649.7385 375.0446 649.7385 360.7725 611.1927C 356.6692 600.1147 353.0443 585.8306 350.0055 567.4429C 343.1625 526.1097 339.2385 463.9963 339.2385 370.6945C 339.2385 334.8166 343.4855 299.6444 350.0055 266.7932C 353.1399 250.9777 356.8006 235.7125 360.7725 221.1532C 365.6297 203.3278 370.9533 186.5672 376.3248 171.2303C 379.9258 160.9179 383.5626 151.2396 387.0918 142.303C 403.3978 101.0536 417.5982 75.50001 417.5982 75.50001C 417.5982 75.50001 495.9578 216.5832 495.9578 370.6945z" stroke="none" fill="#F2F2F2" fill-rule="nonzero" />
    <path transform="matrix(1 0 0 1 -137 -75.5)"  d="M387.0917 142.303L387.0917 628.8027L376.3247 628.8027L376.3247 171.2303C 379.9258 160.9179 383.5626 151.2397 387.0917 142.303z" stroke="none" fill="#000000" fill-rule="nonzero" fill-opacity="0.09803922" />
    <path transform="matrix(1 0 0 1 0 0)"  d="M321.2734 192.6092C 321.2734 180.7163 317.0687 170.5651 308.6591 162.1556C 300.2496 153.7461 290.0984 149.5413 278.2055 149.5413C 266.3127 149.5413 256.1614 153.7461 247.7519 162.1556C 239.3424 170.5651 235.1376 180.7163 235.1376 192.6092C 235.1376 204.5021 239.3424 214.6533 247.7519 223.0628C 256.1614 231.4723 266.3127 235.6771 278.2055 235.6771C 290.0984 235.6771 300.2496 231.4723 308.6591 223.0628C 317.0687 214.6533 321.2734 204.5021 321.2734 192.6092" stroke="none" fill="#3F3D56" fill-rule="nonzero" />
    <path transform="matrix(1 0 0 1 -137 -75.5)"  d="M509.7156 623.4193C 500.1396 599.8475 487.8442 595.7808 479.8074 596.1344L479.8074 596.1344L479.8074 592.3146L354.1926 592.3146L354.1926 596.1344C 346.1558 595.7808 333.8604 599.8475 324.2844 623.4193C 308.7322 661.7018 333.855 727.5 333.855 727.5C 333.855 727.5 320.4289 635.733 365.0133 635.129C 368.8744 640.1656 373.6125 644.4644 379 647.8186L379 647.8186L379 672.5L451 672.5L451 650.0659C 458.0382 646.4962 464.185 641.3917 468.9867 635.1289C 513.5712 635.733 500.145 727.5 500.145 727.5C 500.145 727.5 525.2678 661.7018 509.7156 623.4193z" stroke="none" fill="#6C63FF" fill-rule="nonzero" />
    <path transform="matrix(1 0 0 1 0 0)"  d="M311.7028 192.6092C 311.7028 183.3592 308.4324 175.4638 301.8916 168.923C 295.3509 162.3823 287.4555 159.1119 278.2055 159.1119C 268.9555 159.1119 261.0601 162.3823 254.5194 168.923C 247.9786 175.4638 244.7083 183.3592 244.7083 192.6092C 244.7083 201.8592 247.9786 209.7546 254.5194 216.2953C 261.0601 222.8361 268.9555 226.1064 278.2055 226.1064C 287.4555 226.1064 295.3509 222.8361 301.8916 216.2953C 308.4324 209.7546 311.7028 201.8592 311.7028 192.6092" stroke="none" fill="#6C63FF" fill-rule="nonzero" />
    <path transform="matrix(1 0 0 1 -137 -75.5)"  d="M983.01 276.46L981.01 276.46C 981.3091 321.5444 1017.915 357.9491 1063 358L1063 358L1063 356C 1019.018 355.9523 983.3058 320.4412 983.01 276.46z" stroke="none" fill="#6C63FF" fill-rule="nonzero" />
    <path transform="matrix(1 0 0 1 -137 -75.5)"  d="M946.01 276.46L944.01 276.46C 944.3264 341.9719 997.4874 394.9318 1063 395L1063 395L1063 393C 998.5934 392.9279 946.3302 340.8657 946.01 276.46z" stroke="none" fill="#6C63FF" fill-rule="nonzero" />
    <path transform="matrix(1 0 0 1 -137 -75.5)"  d="M908 276.46L906 276.46C 906.25 362.82 976.58 433 1063 433L1063 433L1063 431C 977.68 431 908.25 361.72 908 276.46z" stroke="none" fill="#6C63FF" fill-rule="nonzero" />
</g>
</svg>