<?xml version="1.0" encoding="UTF-8"?>
<svg xmlns="http://www.w3.org/2000/svg" xmlns:xlink="http://www.w3.org/1999/xlink" width="443pt" height="332pt" viewBox="0 0 443 332" version="1.1">
<g id="surface1">
<path style=" stroke:none;fill-rule:nonzero;fill:rgb(24.705882%,23.921569%,33.72549%);fill-opacity:1;" d="M 442.566406 320.964844 L 308.867188 320.964844 L 308.867188 319.871094 L 442.765625 319.871094 Z M 442.566406 320.964844 "/>
<path style=" stroke:none;fill-rule:nonzero;fill:rgb(90.196078%,90.196078%,90.196078%);fill-opacity:1;" d="M 25.308594 3.855469 C 25.308594 5.980469 23.582031 7.707031 21.453125 7.707031 C 19.324219 7.707031 17.601562 5.980469 17.601562 3.855469 C 17.601562 1.726562 19.324219 0 21.453125 0 C 23.582031 0 25.308594 1.726562 25.308594 3.855469 Z M 25.308594 3.855469 "/>
<path style=" stroke:none;fill-rule:nonzero;fill:rgb(90.196078%,90.196078%,90.196078%);fill-opacity:1;" d="M 44.816406 3.855469 C 44.816406 5.980469 43.089844 7.707031 40.960938 7.707031 C 38.832031 7.707031 37.109375 5.980469 37.109375 3.855469 C 37.109375 1.726562 38.832031 0 40.960938 0 C 43.089844 0 44.816406 1.726562 44.816406 3.855469 Z M 44.816406 3.855469 "/>
<path style=" stroke:none;fill-rule:nonzero;fill:rgb(90.196078%,90.196078%,90.196078%);fill-opacity:1;" d="M 64.324219 3.855469 C 64.324219 5.980469 62.597656 7.707031 60.46875 7.707031 C 58.339844 7.707031 56.613281 5.980469 56.613281 3.855469 C 56.613281 1.726562 58.339844 0 60.46875 0 C 62.597656 0 64.324219 1.726562 64.324219 3.855469 Z M 64.324219 3.855469 "/>
<path style=" stroke:none;fill-rule:nonzero;fill:rgb(90.196078%,90.196078%,90.196078%);fill-opacity:1;" d="M 83.828125 3.855469 C 83.828125 5.980469 82.105469 7.707031 79.976562 7.707031 C 77.847656 7.707031 76.121094 5.980469 76.121094 3.855469 C 76.121094 1.726562 77.847656 0 79.976562 0 C 82.105469 0 83.828125 1.726562 83.828125 3.855469 Z M 83.828125 3.855469 "/>
<path style=" stroke:none;fill-rule:nonzero;fill:rgb(90.196078%,90.196078%,90.196078%);fill-opacity:1;" d="M 103.335938 3.855469 C 103.335938 5.980469 101.613281 7.707031 99.484375 7.707031 C 97.355469 7.707031 95.628906 5.980469 95.628906 3.855469 C 95.628906 1.726562 97.355469 0 99.484375 0 C 101.613281 0 103.335938 1.726562 103.335938 3.855469 Z M 103.335938 3.855469 "/>
<path style=" stroke:none;fill-rule:nonzero;fill:rgb(90.196078%,90.196078%,90.196078%);fill-opacity:1;" d="M 122.84375 3.855469 C 122.84375 5.980469 121.117188 7.707031 118.992188 7.707031 C 116.863281 7.707031 115.136719 5.980469 115.136719 3.855469 C 115.136719 1.726562 116.863281 0 118.992188 0 C 121.117188 0 122.84375 1.726562 122.84375 3.855469 Z M 122.84375 3.855469 "/>
<path style=" stroke:none;fill-rule:nonzero;fill:rgb(90.196078%,90.196078%,90.196078%);fill-opacity:1;" d="M 142.351562 3.855469 C 142.351562 5.980469 140.625 7.707031 138.496094 7.707031 C 136.371094 7.707031 134.644531 5.980469 134.644531 3.855469 C 134.644531 1.726562 136.371094 0 138.496094 0 C 140.625 0 142.351562 1.726562 142.351562 3.855469 Z M 142.351562 3.855469 "/>
<path style=" stroke:none;fill-rule:nonzero;fill:rgb(90.196078%,90.196078%,90.196078%);fill-opacity:1;" d="M 161.859375 3.855469 C 161.859375 5.980469 160.132812 7.707031 158.003906 7.707031 C 155.875 7.707031 154.152344 5.980469 154.152344 3.855469 C 154.152344 1.726562 155.875 0 158.003906 0 C 160.132812 0 161.859375 1.726562 161.859375 3.855469 Z M 161.859375 3.855469 "/>
<path style=" stroke:none;fill-rule:nonzero;fill:rgb(90.196078%,90.196078%,90.196078%);fill-opacity:1;" d="M 181.367188 3.855469 C 181.367188 5.980469 179.640625 7.707031 177.511719 7.707031 C 175.382812 7.707031 173.660156 5.980469 173.660156 3.855469 C 173.660156 1.726562 175.382812 0 177.511719 0 C 179.640625 0 181.367188 1.726562 181.367188 3.855469 Z M 181.367188 3.855469 "/>
<path style=" stroke:none;fill-rule:nonzero;fill:rgb(90.196078%,90.196078%,90.196078%);fill-opacity:1;" d="M 200.875 3.855469 C 200.875 5.980469 199.148438 7.707031 197.019531 7.707031 C 194.890625 7.707031 193.167969 5.980469 193.167969 3.855469 C 193.167969 1.726562 194.890625 0 197.019531 0 C 199.148438 0 200.875 1.726562 200.875 3.855469 Z M 200.875 3.855469 "/>
<path style=" stroke:none;fill-rule:nonzero;fill:rgb(90.196078%,90.196078%,90.196078%);fill-opacity:1;" d="M 25.308594 23.605469 C 25.308594 25.734375 23.582031 27.460938 21.453125 27.460938 C 19.324219 27.460938 17.601562 25.734375 17.601562 23.605469 C 17.601562 21.476562 19.324219 19.753906 21.453125 19.753906 C 23.582031 19.753906 25.308594 21.476562 25.308594 23.605469 Z M 25.308594 23.605469 "/>
<path style=" stroke:none;fill-rule:nonzero;fill:rgb(90.196078%,90.196078%,90.196078%);fill-opacity:1;" d="M 44.816406 23.605469 C 44.816406 25.734375 43.089844 27.460938 40.960938 27.460938 C 38.832031 27.460938 37.109375 25.734375 37.109375 23.605469 C 37.109375 21.476562 38.832031 19.753906 40.960938 19.753906 C 43.089844 19.753906 44.816406 21.476562 44.816406 23.605469 Z M 44.816406 23.605469 "/>
<path style=" stroke:none;fill-rule:nonzero;fill:rgb(90.196078%,90.196078%,90.196078%);fill-opacity:1;" d="M 64.324219 23.605469 C 64.324219 25.734375 62.597656 27.460938 60.46875 27.460938 C 58.339844 27.460938 56.613281 25.734375 56.613281 23.605469 C 56.613281 21.476562 58.339844 19.753906 60.46875 19.753906 C 62.597656 19.753906 64.324219 21.476562 64.324219 23.605469 Z M 64.324219 23.605469 "/>
<path style=" stroke:none;fill-rule:nonzero;fill:rgb(42.352941%,38.823529%,100%);fill-opacity:1;" d="M 83.828125 23.605469 C 83.828125 25.734375 82.105469 27.460938 79.976562 27.460938 C 77.847656 27.460938 76.121094 25.734375 76.121094 23.605469 C 76.121094 21.476562 77.847656 19.753906 79.976562 19.753906 C 82.105469 19.753906 83.828125 21.476562 83.828125 23.605469 Z M 83.828125 23.605469 "/>
<path style=" stroke:none;fill-rule:nonzero;fill:rgb(90.196078%,90.196078%,90.196078%);fill-opacity:1;" d="M 103.335938 23.605469 C 103.335938 25.734375 101.613281 27.460938 99.484375 27.460938 C 97.355469 27.460938 95.628906 25.734375 95.628906 23.605469 C 95.628906 21.476562 97.355469 19.753906 99.484375 19.753906 C 101.613281 19.753906 103.335938 21.476562 103.335938 23.605469 Z M 103.335938 23.605469 "/>
<path style=" stroke:none;fill-rule:nonzero;fill:rgb(90.196078%,90.196078%,90.196078%);fill-opacity:1;" d="M 122.84375 23.605469 C 122.84375 25.734375 121.117188 27.460938 118.992188 27.460938 C 116.863281 27.460938 115.136719 25.734375 115.136719 23.605469 C 115.136719 21.476562 116.863281 19.753906 118.992188 19.753906 C 121.117188 19.753906 122.84375 21.476562 122.84375 23.605469 Z M 122.84375 23.605469 "/>
<path style=" stroke:none;fill-rule:nonzero;fill:rgb(90.196078%,90.196078%,90.196078%);fill-opacity:1;" d="M 142.351562 23.605469 C 142.351562 25.734375 140.625 27.460938 138.496094 27.460938 C 136.371094 27.460938 134.644531 25.734375 134.644531 23.605469 C 134.644531 21.476562 136.371094 19.753906 138.496094 19.753906 C 140.625 19.753906 142.351562 21.476562 142.351562 23.605469 Z M 142.351562 23.605469 "/>
<path style=" stroke:none;fill-rule:nonzero;fill:rgb(90.196078%,90.196078%,90.196078%);fill-opacity:1;" d="M 161.859375 23.605469 C 161.859375 25.734375 160.132812 27.460938 158.003906 27.460938 C 155.875 27.460938 154.152344 25.734375 154.152344 23.605469 C 154.152344 21.476562 155.875 19.753906 158.003906 19.753906 C 160.132812 19.753906 161.859375 21.476562 161.859375 23.605469 Z M 161.859375 23.605469 "/>
<path style=" stroke:none;fill-rule:nonzero;fill:rgb(90.196078%,90.196078%,90.196078%);fill-opacity:1;" d="M 181.367188 23.605469 C 181.367188 25.734375 179.640625 27.460938 177.511719 27.460938 C 175.382812 27.460938 173.660156 25.734375 173.660156 23.605469 C 173.660156 21.476562 175.382812 19.753906 177.511719 19.753906 C 179.640625 19.753906 181.367188 21.476562 181.367188 23.605469 Z M 181.367188 23.605469 "/>
<path style=" stroke:none;fill-rule:nonzero;fill:rgb(90.196078%,90.196078%,90.196078%);fill-opacity:1;" d="M 200.875 23.605469 C 200.875 25.734375 199.148438 27.460938 197.019531 27.460938 C 194.890625 27.460938 193.167969 25.734375 193.167969 23.605469 C 193.167969 21.476562 194.890625 19.753906 197.019531 19.753906 C 199.148438 19.753906 200.875 21.476562 200.875 23.605469 Z M 200.875 23.605469 "/>
<path style=" stroke:none;fill-rule:nonzero;fill:rgb(90.196078%,90.196078%,90.196078%);fill-opacity:1;" d="M 25.308594 43.359375 C 25.308594 45.488281 23.582031 47.210938 21.453125 47.210938 C 19.324219 47.210938 17.601562 45.488281 17.601562 43.359375 C 17.601562 41.230469 19.324219 39.503906 21.453125 39.503906 C 23.582031 39.503906 25.308594 41.230469 25.308594 43.359375 Z M 25.308594 43.359375 "/>
<path style=" stroke:none;fill-rule:nonzero;fill:rgb(90.196078%,90.196078%,90.196078%);fill-opacity:1;" d="M 44.816406 43.359375 C 44.816406 45.488281 43.089844 47.210938 40.960938 47.210938 C 38.832031 47.210938 37.109375 45.488281 37.109375 43.359375 C 37.109375 41.230469 38.832031 39.503906 40.960938 39.503906 C 43.089844 39.503906 44.816406 41.230469 44.816406 43.359375 Z M 44.816406 43.359375 "/>
<path style=" stroke:none;fill-rule:nonzero;fill:rgb(90.196078%,90.196078%,90.196078%);fill-opacity:1;" d="M 64.324219 43.359375 C 64.324219 45.488281 62.597656 47.210938 60.46875 47.210938 C 58.339844 47.210938 56.613281 45.488281 56.613281 43.359375 C 56.613281 41.230469 58.339844 39.503906 60.46875 39.503906 C 62.597656 39.503906 64.324219 41.230469 64.324219 43.359375 Z M 64.324219 43.359375 "/>
<path style=" stroke:none;fill-rule:nonzero;fill:rgb(90.196078%,90.196078%,90.196078%);fill-opacity:1;" d="M 83.828125 43.359375 C 83.828125 45.488281 82.105469 47.210938 79.976562 47.210938 C 77.847656 47.210938 76.121094 45.488281 76.121094 43.359375 C 76.121094 41.230469 77.847656 39.503906 79.976562 39.503906 C 82.105469 39.503906 83.828125 41.230469 83.828125 43.359375 Z M 83.828125 43.359375 "/>
<path style=" stroke:none;fill-rule:nonzero;fill:rgb(90.196078%,90.196078%,90.196078%);fill-opacity:1;" d="M 103.335938 43.359375 C 103.335938 45.488281 101.613281 47.210938 99.484375 47.210938 C 97.355469 47.210938 95.628906 45.488281 95.628906 43.359375 C 95.628906 41.230469 97.355469 39.503906 99.484375 39.503906 C 101.613281 39.503906 103.335938 41.230469 103.335938 43.359375 Z M 103.335938 43.359375 "/>
<path style=" stroke:none;fill-rule:nonzero;fill:rgb(90.196078%,90.196078%,90.196078%);fill-opacity:1;" d="M 122.84375 43.359375 C 122.84375 45.488281 121.117188 47.210938 118.992188 47.210938 C 116.863281 47.210938 115.136719 45.488281 115.136719 43.359375 C 115.136719 41.230469 116.863281 39.503906 118.992188 39.503906 C 121.117188 39.503906 122.84375 41.230469 122.84375 43.359375 Z M 122.84375 43.359375 "/>
<path style=" stroke:none;fill-rule:nonzero;fill:rgb(90.196078%,90.196078%,90.196078%);fill-opacity:1;" d="M 142.351562 43.359375 C 142.351562 45.488281 140.625 47.210938 138.496094 47.210938 C 136.371094 47.210938 134.644531 45.488281 134.644531 43.359375 C 134.644531 41.230469 136.371094 39.503906 138.496094 39.503906 C 140.625 39.503906 142.351562 41.230469 142.351562 43.359375 Z M 142.351562 43.359375 "/>
<path style=" stroke:none;fill-rule:nonzero;fill:rgb(90.196078%,90.196078%,90.196078%);fill-opacity:1;" d="M 161.859375 43.359375 C 161.859375 45.488281 160.132812 47.210938 158.003906 47.210938 C 155.875 47.210938 154.152344 45.488281 154.152344 43.359375 C 154.152344 41.230469 155.875 39.503906 158.003906 39.503906 C 160.132812 39.503906 161.859375 41.230469 161.859375 43.359375 Z M 161.859375 43.359375 "/>
<path style=" stroke:none;fill-rule:nonzero;fill:rgb(90.196078%,90.196078%,90.196078%);fill-opacity:1;" d="M 181.367188 43.359375 C 181.367188 45.488281 179.640625 47.210938 177.511719 47.210938 C 175.382812 47.210938 173.660156 45.488281 173.660156 43.359375 C 173.660156 41.230469 175.382812 39.503906 177.511719 39.503906 C 179.640625 39.503906 181.367188 41.230469 181.367188 43.359375 Z M 181.367188 43.359375 "/>
<path style=" stroke:none;fill-rule:nonzero;fill:rgb(90.196078%,90.196078%,90.196078%);fill-opacity:1;" d="M 200.875 43.359375 C 200.875 45.488281 199.148438 47.210938 197.019531 47.210938 C 194.890625 47.210938 193.167969 45.488281 193.167969 43.359375 C 193.167969 41.230469 194.890625 39.503906 197.019531 39.503906 C 199.148438 39.503906 200.875 41.230469 200.875 43.359375 Z M 200.875 43.359375 "/>
<path style=" stroke:none;fill-rule:nonzero;fill:rgb(90.196078%,90.196078%,90.196078%);fill-opacity:1;" d="M 25.308594 63.109375 C 25.308594 65.238281 23.582031 66.964844 21.453125 66.964844 C 19.324219 66.964844 17.601562 65.238281 17.601562 63.109375 C 17.601562 60.980469 19.324219 59.257812 21.453125 59.257812 C 23.582031 59.257812 25.308594 60.980469 25.308594 63.109375 Z M 25.308594 63.109375 "/>
<path style=" stroke:none;fill-rule:nonzero;fill:rgb(90.196078%,90.196078%,90.196078%);fill-opacity:1;" d="M 44.816406 63.109375 C 44.816406 65.238281 43.089844 66.964844 40.960938 66.964844 C 38.832031 66.964844 37.109375 65.238281 37.109375 63.109375 C 37.109375 60.980469 38.832031 59.257812 40.960938 59.257812 C 43.089844 59.257812 44.816406 60.980469 44.816406 63.109375 Z M 44.816406 63.109375 "/>
<path style=" stroke:none;fill-rule:nonzero;fill:rgb(90.196078%,90.196078%,90.196078%);fill-opacity:1;" d="M 64.324219 63.109375 C 64.324219 65.238281 62.597656 66.964844 60.46875 66.964844 C 58.339844 66.964844 56.613281 65.238281 56.613281 63.109375 C 56.613281 60.980469 58.339844 59.257812 60.46875 59.257812 C 62.597656 59.257812 64.324219 60.980469 64.324219 63.109375 Z M 64.324219 63.109375 "/>
<path style=" stroke:none;fill-rule:nonzero;fill:rgb(90.196078%,90.196078%,90.196078%);fill-opacity:1;" d="M 83.828125 63.109375 C 83.828125 65.238281 82.105469 66.964844 79.976562 66.964844 C 77.847656 66.964844 76.121094 65.238281 76.121094 63.109375 C 76.121094 60.980469 77.847656 59.257812 79.976562 59.257812 C 82.105469 59.257812 83.828125 60.980469 83.828125 63.109375 Z M 83.828125 63.109375 "/>
<path style=" stroke:none;fill-rule:nonzero;fill:rgb(90.196078%,90.196078%,90.196078%);fill-opacity:1;" d="M 103.335938 63.109375 C 103.335938 65.238281 101.613281 66.964844 99.484375 66.964844 C 97.355469 66.964844 95.628906 65.238281 95.628906 63.109375 C 95.628906 60.980469 97.355469 59.257812 99.484375 59.257812 C 101.613281 59.257812 103.335938 60.980469 103.335938 63.109375 Z M 103.335938 63.109375 "/>
<path style=" stroke:none;fill-rule:nonzero;fill:rgb(90.196078%,90.196078%,90.196078%);fill-opacity:1;" d="M 122.84375 63.109375 C 122.84375 65.238281 121.117188 66.964844 118.992188 66.964844 C 116.863281 66.964844 115.136719 65.238281 115.136719 63.109375 C 115.136719 60.980469 116.863281 59.257812 118.992188 59.257812 C 121.117188 59.257812 122.84375 60.980469 122.84375 63.109375 Z M 122.84375 63.109375 "/>
<path style=" stroke:none;fill-rule:nonzero;fill:rgb(90.196078%,90.196078%,90.196078%);fill-opacity:1;" d="M 142.351562 63.109375 C 142.351562 65.238281 140.625 66.964844 138.496094 66.964844 C 136.371094 66.964844 134.644531 65.238281 134.644531 63.109375 C 134.644531 60.980469 136.371094 59.257812 138.496094 59.257812 C 140.625 59.257812 142.351562 60.980469 142.351562 63.109375 Z M 142.351562 63.109375 "/>
<path style=" stroke:none;fill-rule:nonzero;fill:rgb(90.196078%,90.196078%,90.196078%);fill-opacity:1;" d="M 161.859375 63.109375 C 161.859375 65.238281 160.132812 66.964844 158.003906 66.964844 C 155.875 66.964844 154.152344 65.238281 154.152344 63.109375 C 154.152344 60.980469 155.875 59.257812 158.003906 59.257812 C 160.132812 59.257812 161.859375 60.980469 161.859375 63.109375 Z M 161.859375 63.109375 "/>
<path style=" stroke:none;fill-rule:nonzero;fill:rgb(90.196078%,90.196078%,90.196078%);fill-opacity:1;" d="M 181.367188 63.109375 C 181.367188 65.238281 179.640625 66.964844 177.511719 66.964844 C 175.382812 66.964844 173.660156 65.238281 173.660156 63.109375 C 173.660156 60.980469 175.382812 59.257812 177.511719 59.257812 C 179.640625 59.257812 181.367188 60.980469 181.367188 63.109375 Z M 181.367188 63.109375 "/>
<path style=" stroke:none;fill-rule:nonzero;fill:rgb(90.196078%,90.196078%,90.196078%);fill-opacity:1;" d="M 200.875 63.109375 C 200.875 65.238281 199.148438 66.964844 197.019531 66.964844 C 194.890625 66.964844 193.167969 65.238281 193.167969 63.109375 C 193.167969 60.980469 194.890625 59.257812 197.019531 59.257812 C 199.148438 59.257812 200.875 60.980469 200.875 63.109375 Z M 200.875 63.109375 "/>
<path style=" stroke:none;fill-rule:nonzero;fill:rgb(90.196078%,90.196078%,90.196078%);fill-opacity:1;" d="M 25.308594 82.863281 C 25.308594 84.992188 23.582031 86.714844 21.453125 86.714844 C 19.324219 86.714844 17.601562 84.992188 17.601562 82.863281 C 17.601562 80.734375 19.324219 79.007812 21.453125 79.007812 C 23.582031 79.007812 25.308594 80.734375 25.308594 82.863281 Z M 25.308594 82.863281 "/>
<path style=" stroke:none;fill-rule:nonzero;fill:rgb(42.352941%,38.823529%,100%);fill-opacity:1;" d="M 44.816406 82.863281 C 44.816406 84.992188 43.089844 86.714844 40.960938 86.714844 C 38.832031 86.714844 37.109375 84.992188 37.109375 82.863281 C 37.109375 80.734375 38.832031 79.007812 40.960938 79.007812 C 43.089844 79.007812 44.816406 80.734375 44.816406 82.863281 Z M 44.816406 82.863281 "/>
<path style=" stroke:none;fill-rule:nonzero;fill:rgb(90.196078%,90.196078%,90.196078%);fill-opacity:1;" d="M 64.324219 82.863281 C 64.324219 84.992188 62.597656 86.714844 60.46875 86.714844 C 58.339844 86.714844 56.613281 84.992188 56.613281 82.863281 C 56.613281 80.734375 58.339844 79.007812 60.46875 79.007812 C 62.597656 79.007812 64.324219 80.734375 64.324219 82.863281 Z M 64.324219 82.863281 "/>
<path style=" stroke:none;fill-rule:nonzero;fill:rgb(90.196078%,90.196078%,90.196078%);fill-opacity:1;" d="M 83.828125 82.863281 C 83.828125 84.992188 82.105469 86.714844 79.976562 86.714844 C 77.847656 86.714844 76.121094 84.992188 76.121094 82.863281 C 76.121094 80.734375 77.847656 79.007812 79.976562 79.007812 C 82.105469 79.007812 83.828125 80.734375 83.828125 82.863281 Z M 83.828125 82.863281 "/>
<path style=" stroke:none;fill-rule:nonzero;fill:rgb(90.196078%,90.196078%,90.196078%);fill-opacity:1;" d="M 103.335938 82.863281 C 103.335938 84.992188 101.613281 86.714844 99.484375 86.714844 C 97.355469 86.714844 95.628906 84.992188 95.628906 82.863281 C 95.628906 80.734375 97.355469 79.007812 99.484375 79.007812 C 101.613281 79.007812 103.335938 80.734375 103.335938 82.863281 Z M 103.335938 82.863281 "/>
<path style=" stroke:none;fill-rule:nonzero;fill:rgb(90.196078%,90.196078%,90.196078%);fill-opacity:1;" d="M 122.84375 82.863281 C 122.84375 84.992188 121.117188 86.714844 118.992188 86.714844 C 116.863281 86.714844 115.136719 84.992188 115.136719 82.863281 C 115.136719 80.734375 116.863281 79.007812 118.992188 79.007812 C 121.117188 79.007812 122.84375 80.734375 122.84375 82.863281 Z M 122.84375 82.863281 "/>
<path style=" stroke:none;fill-rule:nonzero;fill:rgb(90.196078%,90.196078%,90.196078%);fill-opacity:1;" d="M 142.351562 82.863281 C 142.351562 84.992188 140.625 86.714844 138.496094 86.714844 C 136.371094 86.714844 134.644531 84.992188 134.644531 82.863281 C 134.644531 80.734375 136.371094 79.007812 138.496094 79.007812 C 140.625 79.007812 142.351562 80.734375 142.351562 82.863281 Z M 142.351562 82.863281 "/>
<path style=" stroke:none;fill-rule:nonzero;fill:rgb(90.196078%,90.196078%,90.196078%);fill-opacity:1;" d="M 161.859375 82.863281 C 161.859375 84.992188 160.132812 86.714844 158.003906 86.714844 C 155.875 86.714844 154.152344 84.992188 154.152344 82.863281 C 154.152344 80.734375 155.875 79.007812 158.003906 79.007812 C 160.132812 79.007812 161.859375 80.734375 161.859375 82.863281 Z M 161.859375 82.863281 "/>
<path style=" stroke:none;fill-rule:nonzero;fill:rgb(90.196078%,90.196078%,90.196078%);fill-opacity:1;" d="M 181.367188 82.863281 C 181.367188 84.992188 179.640625 86.714844 177.511719 86.714844 C 175.382812 86.714844 173.660156 84.992188 173.660156 82.863281 C 173.660156 80.734375 175.382812 79.007812 177.511719 79.007812 C 179.640625 79.007812 181.367188 80.734375 181.367188 82.863281 Z M 181.367188 82.863281 "/>
<path style=" stroke:none;fill-rule:nonzero;fill:rgb(90.196078%,90.196078%,90.196078%);fill-opacity:1;" d="M 200.875 82.863281 C 200.875 84.992188 199.148438 86.714844 197.019531 86.714844 C 194.890625 86.714844 193.167969 84.992188 193.167969 82.863281 C 193.167969 80.734375 194.890625 79.007812 197.019531 79.007812 C 199.148438 79.007812 200.875 80.734375 200.875 82.863281 Z M 200.875 82.863281 "/>
<path style=" stroke:none;fill-rule:nonzero;fill:rgb(90.196078%,90.196078%,90.196078%);fill-opacity:1;" d="M 25.308594 102.613281 C 25.308594 104.742188 23.582031 106.46875 21.453125 106.46875 C 19.324219 106.46875 17.601562 104.742188 17.601562 102.613281 C 17.601562 100.488281 19.324219 98.761719 21.453125 98.761719 C 23.582031 98.761719 25.308594 100.488281 25.308594 102.613281 Z M 25.308594 102.613281 "/>
<path style=" stroke:none;fill-rule:nonzero;fill:rgb(90.196078%,90.196078%,90.196078%);fill-opacity:1;" d="M 44.816406 102.613281 C 44.816406 104.742188 43.089844 106.46875 40.960938 106.46875 C 38.832031 106.46875 37.109375 104.742188 37.109375 102.613281 C 37.109375 100.488281 38.832031 98.761719 40.960938 98.761719 C 43.089844 98.761719 44.816406 100.488281 44.816406 102.613281 Z M 44.816406 102.613281 "/>
<path style=" stroke:none;fill-rule:nonzero;fill:rgb(90.196078%,90.196078%,90.196078%);fill-opacity:1;" d="M 64.324219 102.613281 C 64.324219 104.742188 62.597656 106.46875 60.46875 106.46875 C 58.339844 106.46875 56.613281 104.742188 56.613281 102.613281 C 56.613281 100.488281 58.339844 98.761719 60.46875 98.761719 C 62.597656 98.761719 64.324219 100.488281 64.324219 102.613281 Z M 64.324219 102.613281 "/>
<path style=" stroke:none;fill-rule:nonzero;fill:rgb(90.196078%,90.196078%,90.196078%);fill-opacity:1;" d="M 83.828125 102.613281 C 83.828125 104.742188 82.105469 106.46875 79.976562 106.46875 C 77.847656 106.46875 76.121094 104.742188 76.121094 102.613281 C 76.121094 100.488281 77.847656 98.761719 79.976562 98.761719 C 82.105469 98.761719 83.828125 100.488281 83.828125 102.613281 Z M 83.828125 102.613281 "/>
<path style=" stroke:none;fill-rule:nonzero;fill:rgb(90.196078%,90.196078%,90.196078%);fill-opacity:1;" d="M 103.335938 102.613281 C 103.335938 104.742188 101.613281 106.46875 99.484375 106.46875 C 97.355469 106.46875 95.628906 104.742188 95.628906 102.613281 C 95.628906 100.488281 97.355469 98.761719 99.484375 98.761719 C 101.613281 98.761719 103.335938 100.488281 103.335938 102.613281 Z M 103.335938 102.613281 "/>
<path style=" stroke:none;fill-rule:nonzero;fill:rgb(90.196078%,90.196078%,90.196078%);fill-opacity:1;" d="M 122.84375 102.613281 C 122.84375 104.742188 121.117188 106.46875 118.992188 106.46875 C 116.863281 106.46875 115.136719 104.742188 115.136719 102.613281 C 115.136719 100.488281 116.863281 98.761719 118.992188 98.761719 C 121.117188 98.761719 122.84375 100.488281 122.84375 102.613281 Z M 122.84375 102.613281 "/>
<path style=" stroke:none;fill-rule:nonzero;fill:rgb(90.196078%,90.196078%,90.196078%);fill-opacity:1;" d="M 142.351562 102.613281 C 142.351562 104.742188 140.625 106.46875 138.496094 106.46875 C 136.371094 106.46875 134.644531 104.742188 134.644531 102.613281 C 134.644531 100.488281 136.371094 98.761719 138.496094 98.761719 C 140.625 98.761719 142.351562 100.488281 142.351562 102.613281 Z M 142.351562 102.613281 "/>
<path style=" stroke:none;fill-rule:nonzero;fill:rgb(90.196078%,90.196078%,90.196078%);fill-opacity:1;" d="M 161.859375 102.613281 C 161.859375 104.742188 160.132812 106.46875 158.003906 106.46875 C 155.875 106.46875 154.152344 104.742188 154.152344 102.613281 C 154.152344 100.488281 155.875 98.761719 158.003906 98.761719 C 160.132812 98.761719 161.859375 100.488281 161.859375 102.613281 Z M 161.859375 102.613281 "/>
<path style=" stroke:none;fill-rule:nonzero;fill:rgb(90.196078%,90.196078%,90.196078%);fill-opacity:1;" d="M 181.367188 102.613281 C 181.367188 104.742188 179.640625 106.46875 177.511719 106.46875 C 175.382812 106.46875 173.660156 104.742188 173.660156 102.613281 C 173.660156 100.488281 175.382812 98.761719 177.511719 98.761719 C 179.640625 98.761719 181.367188 100.488281 181.367188 102.613281 Z M 181.367188 102.613281 "/>
<path style=" stroke:none;fill-rule:nonzero;fill:rgb(90.196078%,90.196078%,90.196078%);fill-opacity:1;" d="M 200.875 102.613281 C 200.875 104.742188 199.148438 106.46875 197.019531 106.46875 C 194.890625 106.46875 193.167969 104.742188 193.167969 102.613281 C 193.167969 100.488281 194.890625 98.761719 197.019531 98.761719 C 199.148438 98.761719 200.875 100.488281 200.875 102.613281 Z M 200.875 102.613281 "/>
<path style=" stroke:none;fill-rule:nonzero;fill:rgb(90.196078%,90.196078%,90.196078%);fill-opacity:1;" d="M 25.308594 122.367188 C 25.308594 124.496094 23.582031 126.222656 21.453125 126.222656 C 19.324219 126.222656 17.601562 124.496094 17.601562 122.367188 C 17.601562 120.238281 19.324219 118.511719 21.453125 118.511719 C 23.582031 118.511719 25.308594 120.238281 25.308594 122.367188 Z M 25.308594 122.367188 "/>
<path style=" stroke:none;fill-rule:nonzero;fill:rgb(90.196078%,90.196078%,90.196078%);fill-opacity:1;" d="M 44.816406 122.367188 C 44.816406 124.496094 43.089844 126.222656 40.960938 126.222656 C 38.832031 126.222656 37.109375 124.496094 37.109375 122.367188 C 37.109375 120.238281 38.832031 118.511719 40.960938 118.511719 C 43.089844 118.511719 44.816406 120.238281 44.816406 122.367188 Z M 44.816406 122.367188 "/>
<path style=" stroke:none;fill-rule:nonzero;fill:rgb(42.352941%,38.823529%,100%);fill-opacity:1;" d="M 64.324219 122.367188 C 64.324219 124.496094 62.597656 126.222656 60.46875 126.222656 C 58.339844 126.222656 56.613281 124.496094 56.613281 122.367188 C 56.613281 120.238281 58.339844 118.511719 60.46875 118.511719 C 62.597656 118.511719 64.324219 120.238281 64.324219 122.367188 Z M 64.324219 122.367188 "/>
<path style=" stroke:none;fill-rule:nonzero;fill:rgb(90.196078%,90.196078%,90.196078%);fill-opacity:1;" d="M 83.828125 122.367188 C 83.828125 124.496094 82.105469 126.222656 79.976562 126.222656 C 77.847656 126.222656 76.121094 124.496094 76.121094 122.367188 C 76.121094 120.238281 77.847656 118.511719 79.976562 118.511719 C 82.105469 118.511719 83.828125 120.238281 83.828125 122.367188 Z M 83.828125 122.367188 "/>
<path style=" stroke:none;fill-rule:nonzero;fill:rgb(90.196078%,90.196078%,90.196078%);fill-opacity:1;" d="M 103.335938 122.367188 C 103.335938 124.496094 101.613281 126.222656 99.484375 126.222656 C 97.355469 126.222656 95.628906 124.496094 95.628906 122.367188 C 95.628906 120.238281 97.355469 118.511719 99.484375 118.511719 C 101.613281 118.511719 103.335938 120.238281 103.335938 122.367188 Z M 103.335938 122.367188 "/>
<path style=" stroke:none;fill-rule:nonzero;fill:rgb(90.196078%,90.196078%,90.196078%);fill-opacity:1;" d="M 122.84375 122.367188 C 122.84375 124.496094 121.117188 126.222656 118.992188 126.222656 C 116.863281 126.222656 115.136719 124.496094 115.136719 122.367188 C 115.136719 120.238281 116.863281 118.511719 118.992188 118.511719 C 121.117188 118.511719 122.84375 120.238281 122.84375 122.367188 Z M 122.84375 122.367188 "/>
<path style=" stroke:none;fill-rule:nonzero;fill:rgb(90.196078%,90.196078%,90.196078%);fill-opacity:1;" d="M 142.351562 122.367188 C 142.351562 124.496094 140.625 126.222656 138.496094 126.222656 C 136.371094 126.222656 134.644531 124.496094 134.644531 122.367188 C 134.644531 120.238281 136.371094 118.511719 138.496094 118.511719 C 140.625 118.511719 142.351562 120.238281 142.351562 122.367188 Z M 142.351562 122.367188 "/>
<path style=" stroke:none;fill-rule:nonzero;fill:rgb(90.196078%,90.196078%,90.196078%);fill-opacity:1;" d="M 161.859375 122.367188 C 161.859375 124.496094 160.132812 126.222656 158.003906 126.222656 C 155.875 126.222656 154.152344 124.496094 154.152344 122.367188 C 154.152344 120.238281 155.875 118.511719 158.003906 118.511719 C 160.132812 118.511719 161.859375 120.238281 161.859375 122.367188 Z M 161.859375 122.367188 "/>
<path style=" stroke:none;fill-rule:nonzero;fill:rgb(90.196078%,90.196078%,90.196078%);fill-opacity:1;" d="M 181.367188 122.367188 C 181.367188 124.496094 179.640625 126.222656 177.511719 126.222656 C 175.382812 126.222656 173.660156 124.496094 173.660156 122.367188 C 173.660156 120.238281 175.382812 118.511719 177.511719 118.511719 C 179.640625 118.511719 181.367188 120.238281 181.367188 122.367188 Z M 181.367188 122.367188 "/>
<path style=" stroke:none;fill-rule:nonzero;fill:rgb(90.196078%,90.196078%,90.196078%);fill-opacity:1;" d="M 200.875 122.367188 C 200.875 124.496094 199.148438 126.222656 197.019531 126.222656 C 194.890625 126.222656 193.167969 124.496094 193.167969 122.367188 C 193.167969 120.238281 194.890625 118.511719 197.019531 118.511719 C 199.148438 118.511719 200.875 120.238281 200.875 122.367188 Z M 200.875 122.367188 "/>
<path style=" stroke:none;fill-rule:nonzero;fill:rgb(90.196078%,90.196078%,90.196078%);fill-opacity:1;" d="M 25.308594 142.121094 C 25.308594 144.246094 23.582031 145.972656 21.453125 145.972656 C 19.324219 145.972656 17.601562 144.246094 17.601562 142.121094 C 17.601562 139.992188 19.324219 138.265625 21.453125 138.265625 C 23.582031 138.265625 25.308594 139.992188 25.308594 142.121094 Z M 25.308594 142.121094 "/>
<path style=" stroke:none;fill-rule:nonzero;fill:rgb(90.196078%,90.196078%,90.196078%);fill-opacity:1;" d="M 44.816406 142.121094 C 44.816406 144.246094 43.089844 145.972656 40.960938 145.972656 C 38.832031 145.972656 37.109375 144.246094 37.109375 142.121094 C 37.109375 139.992188 38.832031 138.265625 40.960938 138.265625 C 43.089844 138.265625 44.816406 139.992188 44.816406 142.121094 Z M 44.816406 142.121094 "/>
<path style=" stroke:none;fill-rule:nonzero;fill:rgb(90.196078%,90.196078%,90.196078%);fill-opacity:1;" d="M 64.324219 142.121094 C 64.324219 144.246094 62.597656 145.972656 60.46875 145.972656 C 58.339844 145.972656 56.613281 144.246094 56.613281 142.121094 C 56.613281 139.992188 58.339844 138.265625 60.46875 138.265625 C 62.597656 138.265625 64.324219 139.992188 64.324219 142.121094 Z M 64.324219 142.121094 "/>
<path style=" stroke:none;fill-rule:nonzero;fill:rgb(90.196078%,90.196078%,90.196078%);fill-opacity:1;" d="M 83.828125 142.121094 C 83.828125 144.246094 82.105469 145.972656 79.976562 145.972656 C 77.847656 145.972656 76.121094 144.246094 76.121094 142.121094 C 76.121094 139.992188 77.847656 138.265625 79.976562 138.265625 C 82.105469 138.265625 83.828125 139.992188 83.828125 142.121094 Z M 83.828125 142.121094 "/>
<path style=" stroke:none;fill-rule:nonzero;fill:rgb(90.196078%,90.196078%,90.196078%);fill-opacity:1;" d="M 103.335938 142.121094 C 103.335938 144.246094 101.613281 145.972656 99.484375 145.972656 C 97.355469 145.972656 95.628906 144.246094 95.628906 142.121094 C 95.628906 139.992188 97.355469 138.265625 99.484375 138.265625 C 101.613281 138.265625 103.335938 139.992188 103.335938 142.121094 Z M 103.335938 142.121094 "/>
<path style=" stroke:none;fill-rule:nonzero;fill:rgb(90.196078%,90.196078%,90.196078%);fill-opacity:1;" d="M 122.84375 142.121094 C 122.84375 144.246094 121.117188 145.972656 118.992188 145.972656 C 116.863281 145.972656 115.136719 144.246094 115.136719 142.121094 C 115.136719 139.992188 116.863281 138.265625 118.992188 138.265625 C 121.117188 138.265625 122.84375 139.992188 122.84375 142.121094 Z M 122.84375 142.121094 "/>
<path style=" stroke:none;fill-rule:nonzero;fill:rgb(90.196078%,90.196078%,90.196078%);fill-opacity:1;" d="M 142.351562 142.121094 C 142.351562 144.246094 140.625 145.972656 138.496094 145.972656 C 136.371094 145.972656 134.644531 144.246094 134.644531 142.121094 C 134.644531 139.992188 136.371094 138.265625 138.496094 138.265625 C 140.625 138.265625 142.351562 139.992188 142.351562 142.121094 Z M 142.351562 142.121094 "/>
<path style=" stroke:none;fill-rule:nonzero;fill:rgb(90.196078%,90.196078%,90.196078%);fill-opacity:1;" d="M 161.859375 142.121094 C 161.859375 144.246094 160.132812 145.972656 158.003906 145.972656 C 155.875 145.972656 154.152344 144.246094 154.152344 142.121094 C 154.152344 139.992188 155.875 138.265625 158.003906 138.265625 C 160.132812 138.265625 161.859375 139.992188 161.859375 142.121094 Z M 161.859375 142.121094 "/>
<path style=" stroke:none;fill-rule:nonzero;fill:rgb(90.196078%,90.196078%,90.196078%);fill-opacity:1;" d="M 181.367188 142.121094 C 181.367188 144.246094 179.640625 145.972656 177.511719 145.972656 C 175.382812 145.972656 173.660156 144.246094 173.660156 142.121094 C 173.660156 139.992188 175.382812 138.265625 177.511719 138.265625 C 179.640625 138.265625 181.367188 139.992188 181.367188 142.121094 Z M 181.367188 142.121094 "/>
<path style=" stroke:none;fill-rule:nonzero;fill:rgb(90.196078%,90.196078%,90.196078%);fill-opacity:1;" d="M 200.875 142.121094 C 200.875 144.246094 199.148438 145.972656 197.019531 145.972656 C 194.890625 145.972656 193.167969 144.246094 193.167969 142.121094 C 193.167969 139.992188 194.890625 138.265625 197.019531 138.265625 C 199.148438 138.265625 200.875 139.992188 200.875 142.121094 Z M 200.875 142.121094 "/>
<path style=" stroke:none;fill-rule:nonzero;fill:rgb(90.196078%,90.196078%,90.196078%);fill-opacity:1;" d="M 25.308594 161.871094 C 25.308594 164 23.582031 165.726562 21.453125 165.726562 C 19.324219 165.726562 17.601562 164 17.601562 161.871094 C 17.601562 159.742188 19.324219 158.019531 21.453125 158.019531 C 23.582031 158.019531 25.308594 159.742188 25.308594 161.871094 Z M 25.308594 161.871094 "/>
<path style=" stroke:none;fill-rule:nonzero;fill:rgb(90.196078%,90.196078%,90.196078%);fill-opacity:1;" d="M 44.816406 161.871094 C 44.816406 164 43.089844 165.726562 40.960938 165.726562 C 38.832031 165.726562 37.109375 164 37.109375 161.871094 C 37.109375 159.742188 38.832031 158.019531 40.960938 158.019531 C 43.089844 158.019531 44.816406 159.742188 44.816406 161.871094 Z M 44.816406 161.871094 "/>
<path style=" stroke:none;fill-rule:nonzero;fill:rgb(90.196078%,90.196078%,90.196078%);fill-opacity:1;" d="M 64.324219 161.871094 C 64.324219 164 62.597656 165.726562 60.46875 165.726562 C 58.339844 165.726562 56.613281 164 56.613281 161.871094 C 56.613281 159.742188 58.339844 158.019531 60.46875 158.019531 C 62.597656 158.019531 64.324219 159.742188 64.324219 161.871094 Z M 64.324219 161.871094 "/>
<path style=" stroke:none;fill-rule:nonzero;fill:rgb(90.196078%,90.196078%,90.196078%);fill-opacity:1;" d="M 83.828125 161.871094 C 83.828125 164 82.105469 165.726562 79.976562 165.726562 C 77.847656 165.726562 76.121094 164 76.121094 161.871094 C 76.121094 159.742188 77.847656 158.019531 79.976562 158.019531 C 82.105469 158.019531 83.828125 159.742188 83.828125 161.871094 Z M 83.828125 161.871094 "/>
<path style=" stroke:none;fill-rule:nonzero;fill:rgb(90.196078%,90.196078%,90.196078%);fill-opacity:1;" d="M 103.335938 161.871094 C 103.335938 164 101.613281 165.726562 99.484375 165.726562 C 97.355469 165.726562 95.628906 164 95.628906 161.871094 C 95.628906 159.742188 97.355469 158.019531 99.484375 158.019531 C 101.613281 158.019531 103.335938 159.742188 103.335938 161.871094 Z M 103.335938 161.871094 "/>
<path style=" stroke:none;fill-rule:nonzero;fill:rgb(90.196078%,90.196078%,90.196078%);fill-opacity:1;" d="M 122.84375 161.871094 C 122.84375 164 121.117188 165.726562 118.992188 165.726562 C 116.863281 165.726562 115.136719 164 115.136719 161.871094 C 115.136719 159.742188 116.863281 158.019531 118.992188 158.019531 C 121.117188 158.019531 122.84375 159.742188 122.84375 161.871094 Z M 122.84375 161.871094 "/>
<path style=" stroke:none;fill-rule:nonzero;fill:rgb(90.196078%,90.196078%,90.196078%);fill-opacity:1;" d="M 142.351562 161.871094 C 142.351562 164 140.625 165.726562 138.496094 165.726562 C 136.371094 165.726562 134.644531 164 134.644531 161.871094 C 134.644531 159.742188 136.371094 158.019531 138.496094 158.019531 C 140.625 158.019531 142.351562 159.742188 142.351562 161.871094 Z M 142.351562 161.871094 "/>
<path style=" stroke:none;fill-rule:nonzero;fill:rgb(90.196078%,90.196078%,90.196078%);fill-opacity:1;" d="M 161.859375 161.871094 C 161.859375 164 160.132812 165.726562 158.003906 165.726562 C 155.875 165.726562 154.152344 164 154.152344 161.871094 C 154.152344 159.742188 155.875 158.019531 158.003906 158.019531 C 160.132812 158.019531 161.859375 159.742188 161.859375 161.871094 Z M 161.859375 161.871094 "/>
<path style=" stroke:none;fill-rule:nonzero;fill:rgb(90.196078%,90.196078%,90.196078%);fill-opacity:1;" d="M 181.367188 161.871094 C 181.367188 164 179.640625 165.726562 177.511719 165.726562 C 175.382812 165.726562 173.660156 164 173.660156 161.871094 C 173.660156 159.742188 175.382812 158.019531 177.511719 158.019531 C 179.640625 158.019531 181.367188 159.742188 181.367188 161.871094 Z M 181.367188 161.871094 "/>
<path style=" stroke:none;fill-rule:nonzero;fill:rgb(90.196078%,90.196078%,90.196078%);fill-opacity:1;" d="M 200.875 161.871094 C 200.875 164 199.148438 165.726562 197.019531 165.726562 C 194.890625 165.726562 193.167969 164 193.167969 161.871094 C 193.167969 159.742188 194.890625 158.019531 197.019531 158.019531 C 199.148438 158.019531 200.875 159.742188 200.875 161.871094 Z M 200.875 161.871094 "/>
<path style=" stroke:none;fill-rule:nonzero;fill:rgb(90.196078%,90.196078%,90.196078%);fill-opacity:1;" d="M 25.308594 181.625 C 25.308594 183.753906 23.582031 185.476562 21.453125 185.476562 C 19.324219 185.476562 17.601562 183.753906 17.601562 181.625 C 17.601562 179.496094 19.324219 177.769531 21.453125 177.769531 C 23.582031 177.769531 25.308594 179.496094 25.308594 181.625 Z M 25.308594 181.625 "/>
<path style=" stroke:none;fill-rule:nonzero;fill:rgb(90.196078%,90.196078%,90.196078%);fill-opacity:1;" d="M 44.816406 181.625 C 44.816406 183.753906 43.089844 185.476562 40.960938 185.476562 C 38.832031 185.476562 37.109375 183.753906 37.109375 181.625 C 37.109375 179.496094 38.832031 177.769531 40.960938 177.769531 C 43.089844 177.769531 44.816406 179.496094 44.816406 181.625 Z M 44.816406 181.625 "/>
<path style=" stroke:none;fill-rule:nonzero;fill:rgb(90.196078%,90.196078%,90.196078%);fill-opacity:1;" d="M 64.324219 181.625 C 64.324219 183.753906 62.597656 185.476562 60.46875 185.476562 C 58.339844 185.476562 56.613281 183.753906 56.613281 181.625 C 56.613281 179.496094 58.339844 177.769531 60.46875 177.769531 C 62.597656 177.769531 64.324219 179.496094 64.324219 181.625 Z M 64.324219 181.625 "/>
<path style=" stroke:none;fill-rule:nonzero;fill:rgb(90.196078%,90.196078%,90.196078%);fill-opacity:1;" d="M 83.828125 181.625 C 83.828125 183.753906 82.105469 185.476562 79.976562 185.476562 C 77.847656 185.476562 76.121094 183.753906 76.121094 181.625 C 76.121094 179.496094 77.847656 177.769531 79.976562 177.769531 C 82.105469 177.769531 83.828125 179.496094 83.828125 181.625 Z M 83.828125 181.625 "/>
<path style=" stroke:none;fill-rule:nonzero;fill:rgb(90.196078%,90.196078%,90.196078%);fill-opacity:1;" d="M 103.335938 181.625 C 103.335938 183.753906 101.613281 185.476562 99.484375 185.476562 C 97.355469 185.476562 95.628906 183.753906 95.628906 181.625 C 95.628906 179.496094 97.355469 177.769531 99.484375 177.769531 C 101.613281 177.769531 103.335938 179.496094 103.335938 181.625 Z M 103.335938 181.625 "/>
<path style=" stroke:none;fill-rule:nonzero;fill:rgb(90.196078%,90.196078%,90.196078%);fill-opacity:1;" d="M 122.84375 181.625 C 122.84375 183.753906 121.117188 185.476562 118.992188 185.476562 C 116.863281 185.476562 115.136719 183.753906 115.136719 181.625 C 115.136719 179.496094 116.863281 177.769531 118.992188 177.769531 C 121.117188 177.769531 122.84375 179.496094 122.84375 181.625 Z M 122.84375 181.625 "/>
<path style=" stroke:none;fill-rule:nonzero;fill:rgb(90.196078%,90.196078%,90.196078%);fill-opacity:1;" d="M 142.351562 181.625 C 142.351562 183.753906 140.625 185.476562 138.496094 185.476562 C 136.371094 185.476562 134.644531 183.753906 134.644531 181.625 C 134.644531 179.496094 136.371094 177.769531 138.496094 177.769531 C 140.625 177.769531 142.351562 179.496094 142.351562 181.625 Z M 142.351562 181.625 "/>
<path style=" stroke:none;fill-rule:nonzero;fill:rgb(90.196078%,90.196078%,90.196078%);fill-opacity:1;" d="M 161.859375 181.625 C 161.859375 183.753906 160.132812 185.476562 158.003906 185.476562 C 155.875 185.476562 154.152344 183.753906 154.152344 181.625 C 154.152344 179.496094 155.875 177.769531 158.003906 177.769531 C 160.132812 177.769531 161.859375 179.496094 161.859375 181.625 Z M 161.859375 181.625 "/>
<path style=" stroke:none;fill-rule:nonzero;fill:rgb(90.196078%,90.196078%,90.196078%);fill-opacity:1;" d="M 181.367188 181.625 C 181.367188 183.753906 179.640625 185.476562 177.511719 185.476562 C 175.382812 185.476562 173.660156 183.753906 173.660156 181.625 C 173.660156 179.496094 175.382812 177.769531 177.511719 177.769531 C 179.640625 177.769531 181.367188 179.496094 181.367188 181.625 Z M 181.367188 181.625 "/>
<path style=" stroke:none;fill-rule:nonzero;fill:rgb(90.196078%,90.196078%,90.196078%);fill-opacity:1;" d="M 200.875 181.625 C 200.875 183.753906 199.148438 185.476562 197.019531 185.476562 C 194.890625 185.476562 193.167969 183.753906 193.167969 181.625 C 193.167969 179.496094 194.890625 177.769531 197.019531 177.769531 C 199.148438 177.769531 200.875 179.496094 200.875 181.625 Z M 200.875 181.625 "/>
<path style=" stroke:none;fill-rule:nonzero;fill:rgb(24.705882%,23.921569%,33.72549%);fill-opacity:1;" d="M 160.1875 152.925781 L 205.925781 72.78125 L 114.402344 72.78125 L 68.617188 152.085938 L 114.402344 231.390625 L 205.972656 231.390625 L 251.671875 152.234375 Z M 160.1875 152.925781 "/>
<path style=" stroke:none;fill-rule:nonzero;fill:rgb(42.352941%,38.823529%,100%);fill-opacity:1;" d="M 263.03125 145.503906 L 263.117188 145.355469 L 217.332031 66.050781 L 217.285156 66.050781 L 171.546875 146.195312 Z M 263.03125 145.503906 "/>
<path style=" stroke:none;fill-rule:nonzero;fill:rgb(24.705882%,23.921569%,33.72549%);fill-opacity:1;" d="M 329.269531 69.304688 C 328.523438 68.433594 328.152344 67.15625 328.152344 65.476562 C 328.152344 63.8125 328.523438 62.542969 329.269531 61.671875 C 330.050781 60.785156 331.191406 60.304688 332.367188 60.363281 C 333.558594 60.300781 334.710938 60.785156 335.503906 61.671875 C 336.253906 62.542969 336.632812 63.8125 336.632812 65.476562 C 336.632812 67.15625 336.257812 68.433594 335.503906 69.304688 C 334.710938 70.195312 333.558594 70.675781 332.367188 70.613281 C 331.191406 70.671875 330.050781 70.191406 329.269531 69.304688 Z M 333.710938 67.949219 C 334.046875 67.171875 334.195312 66.324219 334.136719 65.476562 C 334.191406 64.640625 334.042969 63.804688 333.699219 63.039062 C 333.441406 62.546875 332.921875 62.25 332.367188 62.273438 C 331.824219 62.25 331.316406 62.550781 331.074219 63.039062 C 330.738281 63.804688 330.59375 64.640625 330.648438 65.476562 C 330.59375 66.320312 330.738281 67.164062 331.074219 67.9375 C 331.316406 68.425781 331.824219 68.726562 332.367188 68.703125 C 332.925781 68.738281 333.449219 68.441406 333.710938 67.949219 Z M 332.203125 77.375 L 341.910156 60.601562 L 344.523438 60.601562 L 334.796875 77.375 Z M 341.214844 76.230469 C 340.46875 75.359375 340.097656 74.074219 340.097656 72.378906 C 340.097656 70.714844 340.46875 69.449219 341.214844 68.585938 C 342.042969 67.757812 343.164062 67.292969 344.335938 67.292969 C 345.507812 67.292969 346.632812 67.757812 347.457031 68.585938 C 348.203125 69.449219 348.578125 70.722656 348.578125 72.402344 C 348.578125 74.085938 348.203125 75.359375 347.457031 76.230469 C 346.636719 77.070312 345.511719 77.539062 344.335938 77.539062 C 343.164062 77.539062 342.039062 77.070312 341.214844 76.230469 Z M 345.65625 74.867188 C 345.992188 74.089844 346.136719 73.246094 346.082031 72.402344 C 346.136719 71.566406 345.984375 70.730469 345.644531 69.964844 C 345.375 69.492188 344.875 69.199219 344.332031 69.199219 C 343.789062 69.199219 343.285156 69.492188 343.015625 69.964844 C 342.683594 70.734375 342.539062 71.570312 342.59375 72.402344 C 342.539062 73.246094 342.683594 74.089844 343.015625 74.867188 C 343.289062 75.339844 343.792969 75.632812 344.335938 75.632812 C 344.882812 75.632812 345.386719 75.339844 345.65625 74.867188 Z M 345.65625 74.867188 "/>
<path style=" stroke:none;fill-rule:nonzero;fill:rgb(24.705882%,23.921569%,33.72549%);fill-opacity:1;" d="M 1.121094 214.003906 C 0.375 213.132812 0 211.855469 0 210.175781 C 0 208.511719 0.375 207.242188 1.121094 206.371094 C 1.898438 205.484375 3.039062 205.003906 4.21875 205.0625 C 5.40625 205 6.558594 205.480469 7.351562 206.371094 C 8.105469 207.242188 8.480469 208.511719 8.480469 210.175781 C 8.480469 211.855469 8.105469 213.132812 7.351562 214.003906 C 6.558594 214.894531 5.40625 215.375 4.21875 215.3125 C 3.039062 215.371094 1.898438 214.890625 1.121094 214.003906 Z M 5.558594 212.648438 C 5.898438 211.871094 6.042969 211.023438 5.984375 210.175781 C 6.039062 209.339844 5.890625 208.503906 5.546875 207.738281 C 5.289062 207.246094 4.773438 206.949219 4.21875 206.972656 C 3.671875 206.949219 3.164062 207.25 2.921875 207.738281 C 2.589844 208.503906 2.441406 209.339844 2.496094 210.175781 C 2.441406 211.019531 2.585938 211.863281 2.921875 212.636719 C 3.164062 213.125 3.671875 213.425781 4.21875 213.402344 C 4.773438 213.433594 5.296875 213.140625 5.558594 212.648438 Z M 4.050781 222.074219 L 13.757812 205.300781 L 16.375 205.300781 L 6.644531 222.074219 Z M 13.0625 220.929688 C 12.316406 220.058594 11.945312 218.773438 11.945312 217.078125 C 11.945312 215.414062 12.316406 214.148438 13.0625 213.285156 C 13.890625 212.457031 15.015625 211.988281 16.1875 211.988281 C 17.355469 211.988281 18.480469 212.457031 19.308594 213.285156 C 20.054688 214.148438 20.425781 215.421875 20.425781 217.101562 C 20.425781 218.78125 20.054688 220.058594 19.308594 220.929688 C 18.484375 221.765625 17.359375 222.238281 16.1875 222.238281 C 15.011719 222.238281 13.886719 221.765625 13.0625 220.929688 Z M 17.503906 219.5625 C 17.839844 218.789062 17.984375 217.945312 17.929688 217.101562 C 17.984375 216.265625 17.835938 215.429688 17.492188 214.664062 C 17.226562 214.191406 16.722656 213.898438 16.179688 213.898438 C 15.636719 213.898438 15.132812 214.191406 14.867188 214.664062 C 14.535156 215.429688 14.386719 216.265625 14.441406 217.101562 C 14.386719 217.945312 14.53125 218.789062 14.867188 219.5625 C 15.136719 220.039062 15.640625 220.328125 16.183594 220.328125 C 16.730469 220.328125 17.234375 220.039062 17.503906 219.5625 Z M 17.503906 219.5625 "/>
<path style=" stroke:none;fill-rule:nonzero;fill:rgb(18.431373%,18.039216%,25.490196%);fill-opacity:1;" d="M 219.640625 117.429688 L 219.050781 117.273438 L 231.976562 68.644531 L 306.957031 68.644531 L 306.957031 69.257812 L 232.445312 69.257812 Z M 219.640625 117.429688 "/>
<path style=" stroke:none;fill-rule:nonzero;fill:rgb(18.431373%,18.039216%,25.490196%);fill-opacity:1;" d="M 313.082031 75.386719 C 309.53125 75.386719 306.648438 72.503906 306.648438 68.953125 C 306.648438 65.398438 309.53125 62.519531 313.082031 62.519531 C 316.636719 62.519531 319.515625 65.398438 319.515625 68.953125 C 319.511719 72.503906 316.632812 75.382812 313.082031 75.386719 Z M 313.082031 63.132812 C 309.867188 63.132812 307.261719 65.738281 307.261719 68.953125 C 307.261719 72.167969 309.867188 74.773438 313.082031 74.773438 C 316.296875 74.773438 318.902344 72.167969 318.902344 68.953125 C 318.898438 65.738281 316.296875 63.136719 313.082031 63.132812 Z M 313.082031 63.132812 "/>
<path style=" stroke:none;fill-rule:nonzero;fill:rgb(42.352941%,38.823529%,100%);fill-opacity:1;" d="M 315.535156 68.953125 C 315.535156 70.304688 314.4375 71.402344 313.082031 71.402344 C 311.730469 71.402344 310.632812 70.304688 310.632812 68.953125 C 310.632812 67.597656 311.730469 66.5 313.082031 66.5 C 314.4375 66.5 315.535156 67.597656 315.535156 68.953125 Z M 315.535156 68.953125 "/>
<path style=" stroke:none;fill-rule:nonzero;fill:rgb(18.431373%,18.039216%,25.490196%);fill-opacity:1;" d="M 124.976562 165.171875 L 125.570312 165.328125 L 112.644531 213.957031 L 37.664062 213.957031 L 37.664062 213.34375 L 112.171875 213.34375 Z M 124.976562 165.171875 "/>
<path style=" stroke:none;fill-rule:nonzero;fill:rgb(18.431373%,18.039216%,25.490196%);fill-opacity:1;" d="M 31.535156 207.21875 C 35.089844 207.21875 37.96875 210.097656 37.96875 213.652344 C 37.96875 217.203125 35.089844 220.082031 31.535156 220.082031 C 27.984375 220.082031 25.101562 217.203125 25.101562 213.652344 C 25.105469 210.097656 27.984375 207.222656 31.535156 207.21875 Z M 31.535156 219.472656 C 34.75 219.472656 37.355469 216.863281 37.355469 213.652344 C 37.355469 210.4375 34.75 207.832031 31.535156 207.832031 C 28.320312 207.832031 25.714844 210.4375 25.714844 213.652344 C 25.71875 216.863281 28.324219 219.46875 31.535156 219.472656 Z M 31.535156 219.472656 "/>
<path style=" stroke:none;fill-rule:nonzero;fill:rgb(42.352941%,38.823529%,100%);fill-opacity:1;" d="M 33.988281 213.652344 C 33.988281 215.003906 32.890625 216.101562 31.535156 216.101562 C 30.183594 216.101562 29.085938 215.003906 29.085938 213.652344 C 29.085938 212.296875 30.183594 211.199219 31.535156 211.199219 C 32.890625 211.199219 33.988281 212.296875 33.988281 213.652344 Z M 33.988281 213.652344 "/>
<path style=" stroke:none;fill-rule:nonzero;fill:rgb(62.745098%,38.039216%,41.568627%);fill-opacity:1;" d="M 359.574219 310.640625 L 368.878906 310.640625 L 368.878906 323.289062 L 359.574219 323.289062 Z M 359.574219 310.640625 "/>
<path style=" stroke:none;fill-rule:nonzero;fill:rgb(62.745098%,38.039216%,41.568627%);fill-opacity:1;" d="M 406.828125 310.640625 L 416.132812 310.640625 L 416.132812 323.289062 L 406.828125 323.289062 Z M 406.828125 310.640625 "/>
<path style=" stroke:none;fill-rule:nonzero;fill:rgb(62.745098%,38.039216%,41.568627%);fill-opacity:1;" d="M 422.585938 205.714844 C 420.972656 205.714844 419.4375 205.007812 418.390625 203.78125 C 417.34375 202.554688 416.882812 200.933594 417.132812 199.339844 L 418.65625 189.625 L 419.109375 186.738281 L 426.179688 186.738281 L 426.550781 190.832031 L 428.023438 199.242188 C 428.304688 200.847656 427.859375 202.496094 426.8125 203.746094 C 425.761719 204.992188 424.214844 205.714844 422.585938 205.714844 Z M 422.585938 205.714844 "/>
<path style=" stroke:none;fill-rule:nonzero;fill:rgb(62.745098%,38.039216%,41.568627%);fill-opacity:1;" d="M 353.378906 204.597656 C 351.765625 204.597656 350.234375 203.890625 349.183594 202.664062 C 348.136719 201.441406 347.675781 199.816406 347.925781 198.222656 L 349.449219 188.511719 L 349.902344 185.621094 L 356.972656 185.621094 L 357.34375 189.714844 L 358.816406 198.125 C 359.097656 199.730469 358.652344 201.378906 357.605469 202.628906 C 356.554688 203.878906 355.007812 204.597656 353.378906 204.597656 Z M 353.378906 204.597656 "/>
<path style=" stroke:none;fill-rule:nonzero;fill:rgb(18.431373%,18.039216%,25.490196%);fill-opacity:1;" d="M 417.246094 313.246094 L 406.085938 312.871094 L 387.855469 202.738281 L 369.621094 313.246094 L 358.832031 312.871094 L 355.855469 185.621094 L 418.363281 185.621094 Z M 417.246094 313.246094 "/>
<path style=" stroke:none;fill-rule:nonzero;fill:rgb(18.431373%,18.039216%,25.490196%);fill-opacity:1;" d="M 368.644531 332.074219 C 359.175781 332.347656 351.761719 329.789062 346.898438 323.710938 C 345.855469 322.398438 345.734375 320.574219 346.597656 319.136719 C 347.40625 317.785156 348.9375 317.035156 350.503906 317.214844 L 353.582031 317.574219 L 359.992188 314.375 C 358.679688 321.996094 362.246094 322.140625 370.773438 319.585938 L 372.3125 327.460938 C 372.53125 328.574219 372.25 329.726562 371.542969 330.613281 C 370.839844 331.503906 369.777344 332.035156 368.644531 332.074219 Z M 368.644531 332.074219 "/>
<path style=" stroke:none;fill-rule:nonzero;fill:rgb(18.431373%,18.039216%,25.490196%);fill-opacity:1;" d="M 415.898438 332.074219 C 406.429688 332.347656 399.015625 329.789062 394.152344 323.710938 C 393.109375 322.398438 392.988281 320.574219 393.851562 319.136719 C 394.660156 317.785156 396.191406 317.035156 397.757812 317.214844 L 400.835938 317.574219 L 407.195312 314.894531 C 405.886719 322.515625 409.5 322.140625 418.027344 319.585938 L 419.566406 327.460938 C 419.785156 328.574219 419.503906 329.726562 418.796875 330.613281 C 418.09375 331.503906 417.03125 332.035156 415.898438 332.074219 Z M 415.898438 332.074219 "/>
<path style=" stroke:none;fill-rule:nonzero;fill:rgb(62.745098%,38.039216%,41.568627%);fill-opacity:1;" d="M 399.015625 54.277344 C 399.015625 62.496094 392.351562 69.160156 384.132812 69.160156 C 375.914062 69.160156 369.25 62.496094 369.25 54.277344 C 369.25 46.058594 375.914062 39.394531 384.132812 39.394531 C 392.351562 39.394531 399.015625 46.058594 399.015625 54.277344 Z M 399.015625 54.277344 "/>
<path style=" stroke:none;fill-rule:nonzero;fill:rgb(62.745098%,38.039216%,41.568627%);fill-opacity:1;" d="M 399.015625 81.441406 L 383.015625 82.183594 L 382.273438 65.441406 L 396.039062 60.230469 Z M 399.015625 81.441406 "/>
<path style=" stroke:none;fill-rule:nonzero;fill:rgb(18.431373%,18.039216%,25.490196%);fill-opacity:1;" d="M 422.085938 190.832031 C 400.265625 186.703125 375.410156 185.222656 358.832031 190.832031 L 364.042969 81.441406 L 381.527344 76.230469 L 382.832031 74.183594 L 397.527344 71.765625 L 404.597656 74 L 409.0625 80.695312 L 428.410156 91.484375 C 418.886719 128.328125 416.066406 161.800781 422.085938 190.832031 Z M 422.085938 190.832031 "/>
<path style=" stroke:none;fill-rule:nonzero;fill:rgb(18.431373%,18.039216%,25.490196%);fill-opacity:1;" d="M 432.503906 190.085938 L 416.503906 188.226562 C 419.839844 171.976562 418.476562 150.84375 419.292969 129.625 C 419.816406 116.167969 422.605469 103.917969 423.574219 88.882812 C 429.640625 90.464844 432.78125 96.097656 432.820312 102.738281 C 432.992188 134.230469 435.964844 163.738281 432.503906 190.085938 Z M 432.503906 190.085938 "/>
<path style=" stroke:none;fill-rule:nonzero;fill:rgb(18.431373%,18.039216%,25.490196%);fill-opacity:1;" d="M 362.925781 188.597656 L 347.296875 187.480469 L 356.597656 134.648438 L 359.75 90.679688 C 359.257812 84.269531 362.6875 80.542969 367.761719 80.324219 C 378.851562 93.453125 380.136719 111.550781 376.691406 132.042969 Z M 362.925781 188.597656 "/>
<path style=" stroke:none;fill-rule:nonzero;fill:rgb(18.431373%,18.039216%,25.490196%);fill-opacity:1;" d="M 388.960938 65.222656 L 387.039062 59.757812 C 384.847656 53.511719 379.386719 48.980469 372.839844 47.980469 L 360.8125 47.707031 L 364.152344 42.339844 C 367.4375 37.058594 373.4375 34.105469 379.628906 34.722656 L 391.648438 35.917969 C 397.605469 36.511719 401.96875 41.804688 401.410156 47.765625 L 400.308594 59.589844 C 400.070312 62.160156 398.515625 64.421875 396.203125 65.570312 C 393.894531 66.714844 391.152344 66.585938 388.960938 65.222656 Z M 388.960938 65.222656 "/>
</g>
</svg>
