<?xml version="1.0" standalone="no"?>
<!DOCTYPE svg PUBLIC "-//W3C//DTD SVG 1.0//EN" "http://www.w3.org/TR/2001/REC-SVG-20010904/DTD/svg10.dtd">
<svg xmlns="http://www.w3.org/2000/svg" xmlns:xlink="http://www.w3.org/1999/xlink" id="body_1" width="410" height="283">

<g transform="matrix(0.4205129 0 0 0.4198813 0 0)">
    <path transform="matrix(1.000251 0 0 0.9998593 -112.6506 -112.9367)"  d="M200.7192 407.3606C 182.6732 422.1255 212.203 551.7285 212.203 551.7285C 212.203 551.7285 218.7651 749.4141 232.7098 758.4371C 246.6544 767.46 269.622 476.2635 269.622 476.2635L269.622 476.2635L367.2344 495.1298C 367.2344 495.1298 308.1748 545.1664 310.6356 555.8299L310.6356 555.8299L289.3085 515.6366C 289.3085 515.6366 218.7652 392.5958 200.7192 407.3606z" stroke="none" fill="#2F2E41" fill-rule="nonzero" />
    <path transform="matrix(1.000251 0 0 0.9998593 -112.6506 -112.9367)"  d="M249.71 761.841C 249.71 761.841 243.7576 782.6743 249.71 782.6743C 245.7417 774.7379 226.8926 784.6584 226.8926 784.6584L226.8926 784.6584L249.71 761.841z" stroke="none" fill="#2F2E41" fill-rule="nonzero" />
    <path transform="matrix(1.000251 0 0 0.9998593 -112.6506 -112.9367)"  d="M334.2162 596.1737C 334.2162 596.1737 324.0042 615.2831 329.8227 616.5384C 327.6173 607.9435 307.1 613.666 307.1 613.666L307.1 613.666L334.2162 596.1737z" stroke="none" fill="#2F2E41" fill-rule="nonzero" />
    <path transform="matrix(1.000251 0 0 0.9998593 -112.6506 -112.9367)"  d="M211.7928 229.7717C 213.4333 233.0528 206.0509 274.0664 206.0509 274.0664L206.0509 274.0664L212.6131 285.5502C 212.6131 285.5502 250.3456 270.7854 244.6037 268.3246C 238.8618 265.8637 210.1523 226.4906 211.7928 229.7717z" stroke="none" fill="#FFB9B9" fill-rule="nonzero" />
    <path transform="matrix(1.000251 0 0 0.9998593 0 0)"  d="M163.6665 79.16753C 163.6665 65.27923 158.7563 53.42482 148.9357 43.60431C 139.1152 33.78379 127.2608 28.87354 113.3725 28.87354C 99.48423 28.87354 87.62982 33.78379 77.80931 43.60431C 67.9888 53.42482 63.07854 65.27923 63.07854 79.16753C 63.07854 93.05583 67.9888 104.9102 77.80931 114.7307C 87.62982 124.5513 99.48423 129.4615 113.3725 129.4615C 127.2608 129.4615 139.1152 124.5513 148.9357 114.7307C 158.7563 104.9102 163.6665 93.05583 163.6665 79.16753" stroke="none" fill="#2F2E41" fill-rule="nonzero" />
    <path transform="matrix(1.000251 0 0 0.9998593 0 0)"  d="M130.7153 32.08409C 130.7153 26.33721 128.6834 21.43194 124.6198 17.36829C 120.5561 13.30463 115.6509 11.2728 109.904 11.2728C 104.1571 11.2728 99.25184 13.30463 95.18817 17.36829C 91.12451 21.43194 89.09268 26.33721 89.09268 32.08409C 89.09268 37.83097 91.12451 42.73624 95.18817 46.7999C 99.25184 50.86356 104.1571 52.89538 109.904 52.89538C 115.6509 52.89538 120.5561 50.86356 124.6198 46.7999C 128.6834 42.73624 130.7153 37.83097 130.7153 32.08409" stroke="none" fill="#2F2E41" fill-rule="nonzero" />
    <path transform="matrix(1.000251 0 0 0.9998593 -112.6506 -112.9367)"  d="M231.6312 154.4627C 232.3514 154.5375 233.075 154.575 233.7991 154.5752C 241.2343 154.5752 248.1046 150.6086 251.8222 144.1696C 255.5398 137.7305 255.5398 129.7973 251.8222 123.3582C 248.1046 116.9192 241.2343 112.9526 233.7991 112.9526C 233.075 112.9528 232.3514 112.9903 231.6312 113.0651C 242.2279 114.1753 250.2747 123.1092 250.2747 133.7639C 250.2747 144.4185 242.2279 153.3525 231.6312 154.4627z" stroke="none" fill="#2F2E41" fill-rule="nonzero" />
    <path transform="matrix(1.000251 0 0 0.9998593 0 0)"  d="M149.2071 103.6948C 149.2071 94.18134 145.8436 86.06106 139.1165 79.334C 132.3894 72.60694 124.2692 69.24341 114.7557 69.24341C 105.2422 69.24341 97.12189 72.60694 90.39484 79.334C 83.66778 86.06106 80.30424 94.18134 80.30424 103.6948C 80.30424 113.2083 83.66778 121.3286 90.39484 128.0557C 97.12189 134.7827 105.2422 138.1463 114.7557 138.1463C 124.2692 138.1463 132.3894 134.7827 139.1165 128.0557C 145.8436 121.3286 149.2071 113.2083 149.2071 103.6948" stroke="none" fill="#FFB9B9" fill-rule="nonzero" />
    <path transform="matrix(1.000251 0 0 0.9998593 -112.6506 -112.9367)"  d="M177.7514 269.5549C 167.0879 272.0157 149.0419 298.2645 149.0419 298.2645L149.0419 298.2645L177.7514 326.974C 177.7514 326.974 198.2582 404.0796 200.7191 407.3607C 216.8407 428.8562 289.3085 381.112 289.3085 381.112C 289.3085 381.112 286.4375 357.7342 288.0781 346.2504C 289.6559 335.2056 281.9261 313.0294 281.9261 313.0294C 281.9261 313.0294 308.9951 301.5456 303.2532 290.0618C 297.5113 278.5779 188.415 267.0941 177.7514 269.5549z" stroke="none" fill="#E6E6E6" fill-rule="nonzero" />
    <path transform="matrix(1.000251 0 0 0.9998593 -112.6506 -112.9367)"  d="M387.3311 434.8398C 387.3311 434.8398 434.0865 475.0332 445.5703 466.8304L445.5703 466.8304L387.3311 434.8398z" stroke="none" fill="#FFB9B9" fill-rule="nonzero" />
    <path transform="matrix(1.000251 0 0 0.9998593 -112.6506 -112.9367)"  d="M177.3414 420.8952C 183.9036 428.2776 215.0739 409.4114 211.0778 401.033C 207.0816 392.6545 182.263 409.4114 182.263 409.4114C 182.263 409.4114 170.7792 413.5127 177.3414 420.8952z" stroke="none" fill="#FFB9B9" fill-rule="nonzero" />
    <path transform="matrix(1.000251 0 0 0.9998593 -112.6506 -112.9367)"  d="M177.7515 309.7483L143.3001 373.7295C 143.3001 373.7295 182.6731 406.5404 187.5947 407.3607L187.5947 407.3607L202.3596 398.3376L177.7515 309.7483z" stroke="none" fill="#E6E6E6" fill-rule="nonzero" />
    <path transform="matrix(1.000251 0 0 0.9998593 -112.6506 -112.9367)"  d="M277.8247 307.2875L318.018 369.6282C 318.018 369.6282 379.5385 438.5311 387.7411 441.8121L387.7411 441.8121L313.9167 352.4024L286.0275 302.3658L275.3639 298.2645L277.8247 307.2875z" stroke="none" fill="#E6E6E6" fill-rule="nonzero" />
    <path transform="matrix(1.000251 0 0 0.9998593 0 0)"  d="M78.68701 62.76198C 78.68701 51.26821 94.21625 41.95067 113.3725 41.95067C 132.5288 41.95067 148.058 51.26821 148.058 62.76198C 148.058 74.25574 132.5288 83.57329 113.3725 83.57329C 94.21625 83.57329 78.68701 74.25574 78.68701 62.76198" stroke="none" fill="#2F2E41" fill-rule="nonzero" />
    <path transform="matrix(1.000251 0 0 0.9998593 -112.6506 -112.9367)"  d="M323.2993 624.742C 320.9323 624.7448 319.0142 626.6629 319.0115 629.0298L319.0115 629.0298L319.0115 775.2745C 319.0142 777.6414 320.9323 779.5594 323.2993 779.5623L323.2993 779.5623L821.9681 779.5623C 824.3351 779.5594 826.2531 777.6414 826.2559 775.2745L826.2559 775.2745L826.2559 629.0298C 826.2532 626.6628 824.3351 624.7448 821.9681 624.7419L821.9681 624.7419L323.2993 624.742z" stroke="none" fill="#E6E6E6" fill-rule="nonzero" />
    <path transform="matrix(1.000251 0 0 0.9998593 -112.6506 -112.9367)"  d="M329.7566 768.8171L815.5105 768.8171L815.5105 635.4872L329.7566 635.4872L329.7566 768.8171z" stroke="none" fill="#FFFFFF" fill-rule="nonzero" />
    <path transform="matrix(1.000251 0 0 0.9998593 -112.6506 -112.9367)"  d="M754.1965 741.1572C 751.655 741.1513 749.304 742.5038 748.0315 744.7037C 746.759 746.9037 746.759 749.616 748.0315 751.816C 749.304 754.016 751.655 755.3685 754.1965 755.3625L754.1965 755.3625L782.607 755.3625C 785.1473 755.3667 787.4965 754.0139 788.7679 751.8146C 790.0392 749.6153 790.0392 746.9045 788.7679 744.7052C 787.4965 742.5059 785.1473 741.1531 782.607 741.1572L782.607 741.1572L754.1965 741.1572z" stroke="none" fill="#6C63FF" fill-rule="nonzero" />
    <path transform="matrix(1.000251 0 0 0.9998593 0 0)"  d="M349.1219 614.4277L677.0874 614.4277L677.0874 616.2964L349.1219 616.2964L349.1219 614.4277z" stroke="none" fill="#E6E6E6" fill-rule="nonzero" />
    <path transform="matrix(1.000251 0 0 0.9998593 0 0)"  d="M321.9359 589.1996C 321.9359 577.7758 317.897 568.025 309.8192 559.9471C 301.7414 551.8694 291.9906 547.8304 280.5668 547.8304C 269.143 547.8304 259.3922 551.8694 251.3143 559.9471C 243.2365 568.025 239.1976 577.7758 239.1976 589.1996C 239.1976 600.6234 243.2365 610.3742 251.3143 618.452C 259.3922 626.5298 269.143 630.5687 280.5668 630.5687C 291.9906 630.5687 301.7414 626.5298 309.8192 618.452C 317.897 610.3742 321.9359 600.6234 321.9359 589.1996" stroke="none" fill="#6C63FF" fill-rule="nonzero" />
    <path transform="matrix(1.000251 0 0 0.9998593 0 0)"  d="M349.64 603.993L348.604 602.438L382.684 579.717L406.054 590.935L439.669 569.459L506.537 597.983L559.787 571.825L611.495 592.788L676.468 535.241L677.707 536.64L611.867 594.956L559.86 573.871L506.591 600.038L439.843 571.565L406.184 593.071L382.835 581.864L349.64 603.993" stroke="none" fill="#3F3D56" fill-rule="nonzero" />
    <path transform="matrix(1.000251 0 0 0.9998593 -112.6506 -112.9367)"  d="M467.8177 742.1343C 465.6446 742.1295 463.6346 743.286 462.5467 745.1671C 461.4588 747.0482 461.4588 749.3672 462.5467 751.2483C 463.6346 753.1294 465.6446 754.2859 467.8177 754.2811L467.8177 754.2811L531.3551 754.2811C 534.7041 754.2737 537.4151 751.5567 537.4151 748.2077C 537.4151 744.8587 534.7041 742.1417 531.3551 742.1343L531.3551 742.1343L467.8177 742.1343z" stroke="none" fill="#E6E6E6" fill-rule="nonzero" />
    <path transform="matrix(1.000251 0 0 0.9998593 -112.6506 -112.9367)"  d="M408.9892 683.6448L415.4533 683.6448L402.0029 696.9557C 397.1137 701.7748 389.2609 701.7748 384.3717 696.9557L384.3717 696.9557L370.923 683.6448L377.3872 683.6448L387.6047 693.7568C 390.7013 696.8091 395.6751 696.8091 398.7717 693.7568L398.7717 693.7568L408.9892 683.6448zM377.305 720.6595L370.8408 720.6595L384.3735 707.2662C 389.2627 702.4472 397.1155 702.4472 402.0047 707.2662L402.0047 707.2662L415.5374 720.6595L409.0732 720.6595L398.7717 710.4653C 395.6751 707.4129 390.7013 707.4129 387.6047 710.4653z" stroke="none" fill="#FFFFFF" fill-rule="nonzero" />
    <path transform="matrix(1.000251 0 0 0.9998593 -112.6506 -112.9367)"  d="M388.2345 156.3068C 385.8675 156.3096 383.9494 158.2277 383.9466 160.5947L383.9466 160.5947L383.9466 306.8393C 383.9494 309.2063 385.8675 311.1244 388.2345 311.1271L388.2345 311.1271L886.9033 311.1271C 889.2701 311.1243 891.1882 309.2062 891.191 306.8393L891.191 306.8393L891.191 160.5946C 891.1883 158.2277 889.2702 156.3096 886.9033 156.3068L886.9033 156.3068L388.2345 156.3068z" stroke="none" fill="#E6E6E6" fill-rule="nonzero" />
    <path transform="matrix(1.000251 0 0 0.9998593 -112.6506 -112.9367)"  d="M394.6918 300.382L880.4456 300.382L880.4456 167.052L394.6918 167.052L394.6918 300.382z" stroke="none" fill="#FFFFFF" fill-rule="nonzero" />
    <path transform="matrix(1.000251 0 0 0.9998593 -112.6506 -112.9367)"  d="M819.1317 272.7221C 816.5923 272.7194 814.2446 274.0725 812.9741 276.2712C 811.7036 278.4699 811.7036 281.1796 812.9741 283.3783C 814.2446 285.577 816.5923 286.9302 819.1317 286.9274L819.1317 286.9274L847.5422 286.9274C 851.4619 286.9231 854.6371 283.7444 854.6371 279.8248C 854.6371 275.9051 851.4619 272.7264 847.5422 272.7221L847.5422 272.7221L819.1317 272.7221z" stroke="none" fill="#6C63FF" fill-rule="nonzero" />
    <path transform="matrix(1.000251 0 0 0.9998593 0 0)"  d="M414.057 145.9926L742.0225 145.9926L742.0225 147.8613L414.057 147.8613L414.057 145.9926z" stroke="none" fill="#E6E6E6" fill-rule="nonzero" />
    <path transform="matrix(1.000251 0 0 0.9998593 0 0)"  d="M386.8711 120.7645C 386.8711 109.3407 382.8322 99.58987 374.7543 91.51203C 366.6765 83.4342 356.9257 79.39528 345.5019 79.39528C 334.0781 79.39528 324.3273 83.4342 316.2495 91.51203C 308.1717 99.58987 304.1328 109.3407 304.1328 120.7645C 304.1328 132.1882 308.1717 141.939 316.2495 150.0169C 324.3273 158.0947 334.0781 162.1336 345.5019 162.1336C 356.9257 162.1336 366.6765 158.0947 374.7543 150.0169C 382.8322 141.939 386.8711 132.1882 386.8711 120.7645" stroke="none" fill="#6C63FF" fill-rule="nonzero" />
    <path transform="matrix(1.000251 0 0 0.9998593 0 0)"  d="M414.575 135.557L413.539 134.002L447.619 111.282L470.989 122.5L504.604 101.024L505.058 101.217L571.472 129.548L624.722 103.39L676.43 124.353L741.403 66.805L742.642 68.204L676.802 126.52L624.795 105.436L571.527 131.603L504.779 103.13L471.119 124.635L447.77 113.427L414.575 135.557" stroke="none" fill="#3F3D56" fill-rule="nonzero" />
    <path transform="matrix(1.000251 0 0 0.9998593 -112.6506 -112.9367)"  d="M532.7528 273.6992C 529.3986 273.6991 526.6794 276.4183 526.6794 279.7726C 526.6794 283.1269 529.3986 285.846 532.7528 285.846L532.7528 285.846L596.2903 285.846C 598.4601 285.846 600.4651 284.6884 601.55 282.8093C 602.6349 280.9302 602.6349 278.615 601.55 276.7359C 600.4651 274.8567 598.4601 273.6992 596.2903 273.6992L596.2903 273.6992L532.7528 273.6992z" stroke="none" fill="#E6E6E6" fill-rule="nonzero" />
    <path transform="matrix(1.000251 0 0 0.9998593 -112.6506 -112.9367)"  d="M474.7693 228.8884C 475.5425 223.7115 471.6009 220.9286 466.2113 219.072L466.2113 219.072L467.9596 212.0593L463.6897 210.9955L461.9876 217.8234C 460.8666 217.5438 459.714 217.28 458.5687 217.0186L458.5687 217.0186L460.283 210.1456L456.0168 209.0818L454.2672 216.0921C 453.3383 215.8806 452.4265 215.6714 451.5414 215.4514L451.5414 215.4514L451.5462 215.4295L445.6593 213.9596L444.5237 218.5189C 444.5237 218.5189 447.6909 219.2447 447.6241 219.2897C 448.8529 219.4368 449.7375 220.541 449.6131 221.7724L449.6131 221.7724L447.6216 229.7614C 447.7725 229.799 447.9207 229.8465 448.0654 229.9036L448.0654 229.9036L447.6155 229.7917L444.8228 240.9832C 444.6989 241.3778 444.4227 241.7066 444.0555 241.897C 443.6884 242.0873 443.2605 242.1234 442.8666 241.9972C 442.9091 242.0592 439.7639 241.2227 439.7639 241.2227L439.7639 241.2227L437.6447 246.1103L443.2009 247.4951C 444.2343 247.7541 445.2471 248.0252 446.2429 248.2805L446.2429 248.2805L444.4763 255.3747L448.7401 256.4385L450.4909 249.4209C 451.6544 249.737 452.7851 250.0288 453.8915 250.3036L453.8915 250.3036L452.148 257.2884L456.4167 258.3522L458.1833 251.2726C 465.4622 252.6501 470.937 252.0945 473.2386 245.5121C 475.0951 240.2112 473.1474 237.1534 469.3176 235.1583C 472.1066 234.5127 474.2076 232.6781 474.768 228.8884L474.768 228.8884L474.7693 228.8884zM465.0149 242.565C 463.6945 247.8659 454.7705 245.0015 451.8757 244.2817L451.8757 244.2817L454.2198 234.8848C 457.1134 235.607 466.3912 237.0368 465.0161 242.565zM466.334 228.8118C 465.1304 233.6337 457.7018 231.1838 455.2909 230.5833L455.2909 230.5833L457.4161 222.0605C 459.8271 222.6611 467.5887 223.7821 466.334 228.8119z" stroke="none" fill="#FFFFFF" fill-rule="nonzero" />
    <path transform="matrix(1.000251 0 0 0.9998593 -112.6506 -112.9367)"  d="M584.4211 390.5244C 582.0541 390.5272 580.136 392.4453 580.1332 394.8123L580.1332 394.8123L580.1332 541.0569C 580.136 543.4238 582.0541 545.3419 584.4211 545.3447L584.4211 545.3447L1083.09 545.3447C 1085.457 545.3419 1087.375 543.4238 1087.378 541.0569L1087.378 541.0569L1087.378 394.8122C 1087.375 392.4453 1085.457 390.5272 1083.09 390.5244L1083.09 390.5244L584.4211 390.5244z" stroke="none" fill="#E6E6E6" fill-rule="nonzero" />
    <path transform="matrix(1.000251 0 0 0.9998593 -112.6506 -112.9367)"  d="M590.8784 534.5995L1076.632 534.5995L1076.632 401.2696L590.8784 401.2696L590.8784 534.5995z" stroke="none" fill="#FFFFFF" fill-rule="nonzero" />
    <path transform="matrix(1.000251 0 0 0.9998593 -112.6506 -112.9367)"  d="M1015.318 506.9397C 1012.779 506.9369 1010.431 508.29 1009.161 510.4887C 1007.89 512.6874 1007.89 515.3972 1009.161 517.5959C 1010.431 519.7946 1012.779 521.1477 1015.318 521.145L1015.318 521.145L1043.729 521.145C 1046.268 521.1477 1048.616 519.7946 1049.886 517.5959C 1051.157 515.3972 1051.157 512.6874 1049.886 510.4887C 1048.616 508.29 1046.268 506.9369 1043.729 506.9397L1043.729 506.9397L1015.318 506.9397z" stroke="none" fill="#6C63FF" fill-rule="nonzero" />
    <path transform="matrix(1.000251 0 0 0.9998593 0 0)"  d="M610.2437 380.2101L938.2092 380.2101L938.2092 382.0789L610.2437 382.0789L610.2437 380.2101z" stroke="none" fill="#E6E6E6" fill-rule="nonzero" />
    <path transform="matrix(1.000251 0 0 0.9998593 0 0)"  d="M583.0577 354.982C 583.0577 343.5582 579.0188 333.8074 570.941 325.7296C 562.8632 317.6518 553.1124 313.6129 541.6885 313.6129C 530.2648 313.6129 520.5139 317.6518 512.4361 325.7296C 504.3583 333.8074 500.3194 343.5582 500.3194 354.982C 500.3194 366.4058 504.3583 376.1566 512.4361 384.2344C 520.5139 392.3123 530.2648 396.3512 541.6885 396.3512C 553.1124 396.3512 562.8632 392.3123 570.941 384.2344C 579.0188 376.1566 583.0577 366.4058 583.0577 354.982" stroke="none" fill="#6C63FF" fill-rule="nonzero" />
    <path transform="matrix(1.000251 0 0 0.9998593 0 0)"  d="M610.762 369.775L609.725 368.22L643.805 345.5L667.176 356.718L700.79 335.242L701.245 335.435L767.658 363.766L820.909 337.608L872.617 358.57L937.59 301.023L938.829 302.423L872.989 360.738L820.982 339.654L767.713 365.821L700.966 337.348L667.305 358.853L643.957 347.646L610.762 369.775" stroke="none" fill="#3F3D56" fill-rule="nonzero" />
    <path transform="matrix(1.000251 0 0 0.9998593 -112.6506 -112.9367)"  d="M728.9395 507.9167C 725.5881 507.9209 722.8736 510.6389 722.8736 513.9902C 722.8736 517.3415 725.5881 520.0594 728.9395 520.0636L728.9395 520.0636L792.4769 520.0636C 794.6468 520.0636 796.6518 518.906 797.7367 517.0269C 798.8216 515.1478 798.8216 512.8326 797.7367 510.9535C 796.6518 509.0743 794.6468 507.9167 792.4769 507.9167L792.4769 507.9167L728.9395 507.9167z" stroke="none" fill="#E6E6E6" fill-rule="nonzero" />
    <path transform="matrix(1.000251 0 0 0.9998593 0 0)"  d="M541.684 382.247L558.431 358.662L541.684 368.55L524.947 358.662L541.683 382.247L541.684 382.247" stroke="none" fill="#FFFFFF" fill-rule="nonzero" />
    <path transform="matrix(1.000251 0 0 0.9998593 0 0)"  d="M541.683 365.381L541.684 365.381L558.421 355.488L541.684 327.717L541.683 327.717L524.947 355.488L541.683 365.381" stroke="none" fill="#FFFFFF" fill-rule="nonzero" />
</g>
</svg>