<?xml version="1.0" encoding="UTF-8"?>
<svg xmlns="http://www.w3.org/2000/svg" xmlns:xlink="http://www.w3.org/1999/xlink" width="444pt" height="268pt" viewBox="0 0 444 268" version="1.1">
<g id="surface1">
<path style=" stroke:none;fill-rule:nonzero;fill:rgb(90.196078%,90.196078%,90.196078%);fill-opacity:1;" d="M 29.117188 196.214844 L 26.449219 185.679688 C 21.722656 183.671875 16.886719 181.933594 11.960938 180.472656 L 11.625 185.367188 L 10.261719 179.972656 C 4.152344 178.226562 0 177.457031 0 177.457031 C 0 177.457031 5.609375 198.832031 17.378906 215.175781 L 31.09375 217.589844 L 20.4375 219.128906 C 21.921875 220.914062 23.511719 222.605469 25.203125 224.1875 C 42.324219 240.109375 61.394531 247.414062 67.796875 240.503906 C 74.199219 233.59375 65.507812 215.085938 48.390625 199.164062 C 43.082031 194.230469 36.414062 190.269531 29.742188 187.152344 Z M 29.117188 196.214844 "/>
<path style=" stroke:none;fill-rule:nonzero;fill:rgb(90.196078%,90.196078%,90.196078%);fill-opacity:1;" d="M 54.476562 184.773438 L 57.632812 174.371094 C 54.621094 170.207031 51.375 166.210938 47.914062 162.410156 L 45.101562 166.429688 L 46.714844 161.101562 C 42.390625 156.445312 39.230469 153.636719 39.230469 153.636719 C 39.230469 153.636719 33.003906 174.839844 34.648438 194.925781 L 45.140625 204.09375 L 35.226562 199.894531 C 35.574219 202.1875 36.066406 204.460938 36.695312 206.691406 C 43.136719 229.1875 55.691406 245.316406 64.738281 242.714844 C 73.785156 240.117188 75.894531 219.773438 69.453125 197.277344 C 67.457031 190.304688 63.792969 183.460938 59.6875 177.335938 Z M 54.476562 184.773438 "/>
<path style=" stroke:none;fill-rule:nonzero;fill:rgb(24.705882%,23.921569%,33.72549%);fill-opacity:1;" d="M 0.0390625 244.28125 L 444.039062 244.28125 L 444.039062 245.402344 L 0.0390625 245.402344 Z M 0.0390625 244.28125 "/>
<path style=" stroke:none;fill-rule:nonzero;fill:rgb(18.431373%,18.039216%,25.490196%);fill-opacity:1;" d="M 70.1875 128.046875 C 70.1875 128.046875 66.730469 169.699219 65.988281 178.621094 C 65.480469 184.21875 64.230469 189.71875 62.277344 194.984375 C 62.277344 194.984375 60.792969 197.960938 60.792969 200.9375 L 60.792969 238.867188 C 60.792969 238.867188 57.824219 238.867188 58.566406 241.84375 C 59.308594 244.816406 60.050781 250.023438 60.050781 250.023438 L 71.1875 250.023438 C 71.1875 250.023438 70.441406 247.792969 72.671875 247.050781 C 74.898438 246.304688 72.671875 240.355469 72.671875 240.355469 L 84.546875 195.730469 L 102.367188 158.539062 C 102.367188 158.539062 112.757812 192.011719 114.984375 195.730469 C 114.984375 195.730469 123.152344 237.378906 124.636719 241.097656 C 126.121094 244.816406 126.863281 244.816406 126.121094 246.304688 C 125.378906 247.792969 125.378906 249.28125 126.121094 250.023438 C 126.863281 250.769531 140.96875 250.023438 140.96875 250.023438 L 137.257812 197.21875 L 130.578125 133.996094 L 96.425781 123.582031 Z M 70.1875 128.046875 "/>
<path style=" stroke:none;fill-rule:nonzero;fill:rgb(18.431373%,18.039216%,25.490196%);fill-opacity:1;" d="M 68.214844 244.074219 C 68.214844 244.074219 64.503906 230.6875 58.566406 241.097656 C 52.625 251.511719 52.625 255.230469 52.625 255.230469 C 52.625 255.230469 42.976562 269.363281 56.339844 267.875 C 69.699219 266.386719 66.730469 259.695312 66.730469 259.695312 C 66.730469 259.695312 71.929688 256.71875 71.929688 254.488281 C 71.929688 252.257812 68.214844 244.074219 68.214844 244.074219 Z M 68.214844 244.074219 "/>
<path style=" stroke:none;fill-rule:nonzero;fill:rgb(18.431373%,18.039216%,25.490196%);fill-opacity:1;" d="M 128.347656 242.585938 C 128.347656 242.585938 132.0625 229.199219 138 239.613281 C 143.9375 250.023438 143.9375 253.742188 143.9375 253.742188 C 143.9375 253.742188 153.589844 267.875 140.226562 266.386719 C 126.863281 264.898438 129.832031 258.207031 129.832031 258.207031 C 129.832031 258.207031 124.636719 255.230469 124.636719 253 C 124.636719 250.769531 128.347656 242.585938 128.347656 242.585938 Z M 128.347656 242.585938 "/>
<path style=" stroke:none;fill-rule:nonzero;fill:rgb(62.745098%,38.039216%,41.568627%);fill-opacity:1;" d="M 93.457031 27.636719 C 93.457031 27.636719 94.941406 37.304688 90.488281 39.539062 C 86.035156 41.769531 100.136719 49.949219 103.851562 49.949219 C 107.5625 49.949219 114.242188 42.511719 114.242188 42.511719 C 114.242188 42.511719 110.53125 31.355469 111.273438 29.125 Z M 93.457031 27.636719 "/>
<path style=" stroke:none;fill-rule:nonzero;fill:rgb(62.745098%,38.039216%,41.568627%);fill-opacity:1;" d="M 117.214844 19.457031 C 117.214844 28.082031 110.234375 35.074219 101.625 35.074219 C 93.011719 35.074219 86.035156 28.082031 86.035156 19.457031 C 86.035156 10.828125 93.011719 3.835938 101.625 3.835938 C 110.234375 3.835938 117.214844 10.828125 117.214844 19.457031 Z M 117.214844 19.457031 "/>
<path style=" stroke:none;fill-rule:nonzero;fill:rgb(81.176471%,80%,87.843137%);fill-opacity:1;" d="M 132.0625 51.4375 L 113.503906 40.171875 C 113.503906 40.171875 102.941406 52.179688 91.519531 38.792969 L 71.929688 44 L 74.898438 94.578125 C 74.898438 94.578125 70.441406 114.65625 71.929688 118.378906 C 73.414062 122.097656 68.214844 123.582031 69.699219 124.328125 C 71.1875 125.070312 69.699219 130.277344 69.699219 130.277344 C 69.699219 130.277344 98.652344 145.152344 130.578125 133.996094 L 127.605469 124.328125 C 128.429688 121.757812 127.867188 118.945312 126.121094 116.890625 C 126.121094 116.890625 129.089844 112.425781 125.378906 108.707031 C 125.378906 108.707031 126.863281 102.015625 123.152344 99.039062 L 122.410156 88.625 L 124.636719 83.417969 Z M 132.0625 51.4375 "/>
<path style=" stroke:none;fill-rule:nonzero;fill:rgb(18.431373%,18.039216%,25.490196%);fill-opacity:1;" d="M 93.644531 12.203125 C 93.644531 12.203125 91.785156 16.234375 99.222656 14.621094 C 99.222656 14.621094 102.007812 16.234375 102.007812 13.816406 C 102.007812 13.816406 105.726562 17.84375 106.65625 15.425781 C 107.585938 13.007812 109.445312 16.234375 109.445312 16.234375 L 111.300781 12.203125 L 113.160156 14.621094 L 119.664062 14.621094 C 119.664062 14.621094 121.523438 -1.5 99.222656 0.113281 C 76.917969 1.726562 87.890625 27.265625 87.890625 27.265625 C 87.890625 27.265625 88.070312 22.679688 89.925781 25.097656 C 91.785156 27.515625 93.644531 12.203125 93.644531 12.203125 Z M 93.644531 12.203125 "/>
<path style=" stroke:none;fill-rule:nonzero;fill:rgb(62.745098%,38.039216%,41.568627%);fill-opacity:1;" d="M 138.742188 81.1875 L 139.484375 96.808594 C 139.484375 96.808594 142.453125 125.816406 136.515625 138.457031 L 136.515625 145.152344 C 136.515625 145.152344 135.03125 162.257812 127.605469 161.515625 C 120.183594 160.773438 129.832031 136.972656 129.832031 136.972656 L 128.347656 104.246094 L 126.863281 85.652344 Z M 138.742188 81.1875 "/>
<path style=" stroke:none;fill-rule:nonzero;fill:rgb(81.176471%,80%,87.843137%);fill-opacity:1;" d="M 123.894531 52.179688 L 131.300781 50.976562 C 136.636719 56.109375 140.269531 62.761719 141.710938 70.03125 C 143.9375 81.933594 144.683594 84.164062 144.683594 84.164062 L 126.863281 88.625 L 117.214844 70.03125 Z M 123.894531 52.179688 "/>
<path style=" stroke:none;fill-rule:nonzero;fill:rgb(100%,100%,100%);fill-opacity:1;" d="M 92.007812 43.691406 L 209.164062 43.691406 L 209.164062 102 L 92.007812 102 Z M 92.007812 43.691406 "/>
<path style=" stroke:none;fill-rule:nonzero;fill:rgb(42.352941%,38.823529%,100%);fill-opacity:1;" d="M 104.800781 47.199219 C 101.792969 45.386719 98.160156 45.523438 96.78125 45.664062 C 97.308594 46.949219 98.882812 50.226562 101.894531 52.039062 C 104.910156 53.859375 108.535156 53.714844 109.914062 53.578125 C 109.386719 52.292969 107.8125 49.015625 104.800781 47.199219 Z M 104.800781 47.199219 "/>
<path style=" stroke:none;fill-rule:nonzero;fill:rgb(42.352941%,38.823529%,100%);fill-opacity:1;" d="M 118.945312 83.183594 L 100.132812 83.183594 C 98.621094 83.179688 97.21875 83.988281 96.464844 85.300781 C 95.707031 86.613281 95.707031 88.234375 96.464844 89.546875 C 97.21875 90.859375 98.621094 91.664062 100.132812 91.664062 L 118.945312 91.664062 C 120.457031 91.664062 121.855469 90.859375 122.613281 89.546875 C 123.371094 88.234375 123.371094 86.613281 122.613281 85.300781 C 121.855469 83.988281 120.457031 83.179688 118.945312 83.183594 Z M 118.945312 83.183594 "/>
<path style=" stroke:none;fill-rule:nonzero;fill:rgb(42.352941%,38.823529%,100%);fill-opacity:1;" d="M 204.128906 38.421875 L 98.660156 38.421875 C 93.5 38.421875 89.316406 42.613281 89.316406 47.78125 L 89.316406 99.265625 C 89.316406 104.433594 93.5 108.625 98.660156 108.625 L 204.128906 108.625 C 209.289062 108.625 213.472656 104.433594 213.472656 99.265625 L 213.472656 47.78125 C 213.472656 42.613281 209.289062 38.421875 204.128906 38.421875 Z M 96.050781 44.808594 C 96.257812 44.769531 101.195312 43.925781 105.285156 46.390625 C 109.375 48.855469 110.945312 53.625 111.011719 53.824219 L 111.175781 54.339844 L 110.644531 54.433594 C 109.890625 54.550781 109.125 54.609375 108.355469 54.601562 C 105.925781 54.648438 103.527344 54.042969 101.410156 52.847656 C 97.320312 50.382812 95.75 45.617188 95.683594 45.414062 L 95.519531 44.902344 Z M 118.945312 92.605469 L 100.132812 92.605469 C 97.277344 92.605469 94.960938 90.285156 94.960938 87.421875 C 94.960938 84.5625 97.277344 82.242188 100.132812 82.242188 L 118.945312 82.242188 C 121.800781 82.242188 124.117188 84.5625 124.117188 87.421875 C 124.117188 90.285156 121.800781 92.605469 118.945312 92.605469 Z M 204.539062 91.664062 C 204.527344 94.78125 202.007812 97.308594 198.894531 97.316406 L 184.785156 97.316406 C 181.671875 97.308594 179.152344 94.78125 179.140625 91.664062 L 179.140625 83.183594 C 179.152344 80.0625 181.671875 77.539062 184.785156 77.527344 L 198.894531 77.527344 C 202.007812 77.539062 204.527344 80.0625 204.539062 83.183594 Z M 204.539062 91.664062 "/>
<path style=" stroke:none;fill-rule:nonzero;fill:rgb(42.352941%,38.823529%,100%);fill-opacity:1;" d="M 189.253906 90.015625 L 183.140625 90.015625 C 182.230469 90.015625 181.492188 90.753906 181.492188 91.664062 C 181.492188 92.574219 182.230469 93.3125 183.140625 93.3125 L 189.253906 93.3125 C 190.164062 93.3125 190.898438 92.574219 190.898438 91.664062 C 190.898438 90.753906 190.164062 90.015625 189.253906 90.015625 Z M 189.253906 92.371094 L 183.140625 92.371094 C 182.886719 92.371094 182.652344 92.238281 182.527344 92.019531 C 182.402344 91.800781 182.402344 91.527344 182.527344 91.308594 C 182.652344 91.089844 182.886719 90.957031 183.140625 90.957031 L 189.253906 90.957031 C 189.640625 90.957031 189.957031 91.273438 189.957031 91.664062 C 189.957031 92.054688 189.640625 92.371094 189.253906 92.371094 Z M 189.253906 92.371094 "/>
<path style=" stroke:none;fill-rule:nonzero;fill:rgb(42.352941%,38.823529%,100%);fill-opacity:1;" d="M 200.539062 90.015625 L 194.425781 90.015625 C 193.519531 90.015625 192.78125 90.753906 192.78125 91.664062 C 192.78125 92.574219 193.519531 93.3125 194.425781 93.3125 L 200.539062 93.3125 C 201.449219 93.3125 202.1875 92.574219 202.1875 91.664062 C 202.1875 90.753906 201.449219 90.015625 200.539062 90.015625 Z M 200.539062 92.371094 L 194.425781 92.371094 C 194.175781 92.371094 193.941406 92.238281 193.8125 92.019531 C 193.6875 91.800781 193.6875 91.527344 193.8125 91.308594 C 193.941406 91.089844 194.175781 90.957031 194.425781 90.957031 L 200.539062 90.957031 C 200.929688 90.957031 201.242188 91.273438 201.242188 91.664062 C 201.242188 92.054688 200.929688 92.371094 200.539062 92.371094 Z M 200.539062 92.371094 "/>
<path style=" stroke:none;fill-rule:nonzero;fill:rgb(42.352941%,38.823529%,100%);fill-opacity:1;" d="M 189.253906 85.773438 L 183.140625 85.773438 C 182.230469 85.773438 181.492188 86.511719 181.492188 87.421875 C 181.492188 88.335938 182.230469 89.074219 183.140625 89.074219 L 189.253906 89.074219 C 190.164062 89.074219 190.898438 88.335938 190.898438 87.421875 C 190.898438 86.511719 190.164062 85.773438 189.253906 85.773438 Z M 189.253906 88.128906 L 183.140625 88.128906 C 182.75 88.128906 182.433594 87.8125 182.433594 87.421875 C 182.433594 87.03125 182.75 86.714844 183.140625 86.714844 L 189.253906 86.714844 C 189.644531 86.714844 189.957031 87.03125 189.957031 87.421875 C 189.957031 87.8125 189.644531 88.128906 189.253906 88.128906 Z M 189.253906 88.128906 "/>
<path style=" stroke:none;fill-rule:nonzero;fill:rgb(42.352941%,38.823529%,100%);fill-opacity:1;" d="M 200.539062 85.773438 L 194.425781 85.773438 C 193.519531 85.773438 192.78125 86.511719 192.78125 87.421875 C 192.78125 88.335938 193.519531 89.074219 194.425781 89.074219 L 200.539062 89.074219 C 201.449219 89.074219 202.1875 88.335938 202.1875 87.421875 C 202.1875 86.511719 201.449219 85.773438 200.539062 85.773438 Z M 200.539062 88.128906 L 194.425781 88.128906 C 194.035156 88.128906 193.722656 87.8125 193.722656 87.421875 C 193.722656 87.03125 194.035156 86.714844 194.425781 86.714844 L 200.539062 86.714844 C 200.929688 86.714844 201.246094 87.03125 201.246094 87.421875 C 201.246094 87.8125 200.929688 88.128906 200.539062 88.128906 Z M 200.539062 88.128906 "/>
<path style=" stroke:none;fill-rule:nonzero;fill:rgb(42.352941%,38.823529%,100%);fill-opacity:1;" d="M 189.253906 81.535156 L 183.140625 81.535156 C 182.230469 81.535156 181.492188 82.273438 181.492188 83.183594 C 181.492188 84.09375 182.230469 84.832031 183.140625 84.832031 L 189.253906 84.832031 C 190.164062 84.832031 190.898438 84.09375 190.898438 83.183594 C 190.898438 82.273438 190.164062 81.535156 189.253906 81.535156 Z M 189.253906 83.890625 L 183.140625 83.890625 C 182.886719 83.890625 182.652344 83.753906 182.527344 83.535156 C 182.402344 83.316406 182.402344 83.046875 182.527344 82.828125 C 182.652344 82.609375 182.886719 82.476562 183.140625 82.476562 L 189.253906 82.476562 C 189.640625 82.476562 189.957031 82.792969 189.957031 83.183594 C 189.957031 83.574219 189.640625 83.890625 189.253906 83.890625 Z M 189.253906 83.890625 "/>
<path style=" stroke:none;fill-rule:nonzero;fill:rgb(42.352941%,38.823529%,100%);fill-opacity:1;" d="M 200.539062 81.535156 L 194.425781 81.535156 C 193.519531 81.535156 192.78125 82.273438 192.78125 83.183594 C 192.78125 84.09375 193.519531 84.832031 194.425781 84.832031 L 200.539062 84.832031 C 201.449219 84.832031 202.1875 84.09375 202.1875 83.183594 C 202.1875 82.273438 201.449219 81.535156 200.539062 81.535156 Z M 200.539062 83.890625 L 194.425781 83.890625 C 194.175781 83.890625 193.941406 83.753906 193.8125 83.535156 C 193.6875 83.316406 193.6875 83.046875 193.8125 82.828125 C 193.941406 82.609375 194.175781 82.476562 194.425781 82.476562 L 200.539062 82.476562 C 200.929688 82.476562 201.242188 82.792969 201.242188 83.183594 C 201.242188 83.574219 200.929688 83.890625 200.539062 83.890625 Z M 200.539062 83.890625 "/>
<path style=" stroke:none;fill-rule:nonzero;fill:rgb(62.745098%,38.039216%,41.568627%);fill-opacity:1;" d="M 60.792969 72.261719 C 60.792969 72.261719 54.109375 100.527344 62.277344 100.527344 C 70.441406 100.527344 89.746094 68.542969 89.746094 68.542969 C 89.746094 68.542969 109.789062 58.132812 101.625 54.414062 C 93.457031 50.695312 83.0625 60.363281 83.0625 60.363281 L 71.070312 77.042969 L 70.441406 68.542969 Z M 60.792969 72.261719 "/>
<path style=" stroke:none;fill-rule:nonzero;fill:rgb(81.176471%,80%,87.843137%);fill-opacity:1;" d="M 76.382812 48.460938 L 71.929688 44 C 71.929688 44 63.019531 49.207031 62.277344 54.414062 C 61.535156 59.617188 57.824219 75.980469 57.824219 75.980469 L 71.558594 77.097656 L 76.011719 70.402344 Z M 76.382812 48.460938 "/>
<path style=" stroke:none;fill-rule:nonzero;fill:rgb(42.352941%,38.823529%,100%);fill-opacity:1;" d="M 287.390625 37.882812 C 286.832031 36.226562 279.820312 30.605469 284.117188 29.660156 L 287.640625 34.367188 L 303.84375 18.132812 L 305.472656 19.765625 Z M 287.390625 37.882812 "/>
<path style=" stroke:none;fill-rule:nonzero;fill:rgb(42.352941%,38.823529%,100%);fill-opacity:1;" d="M 287.390625 93.082031 C 286.832031 91.425781 279.820312 85.804688 284.117188 84.859375 L 287.640625 89.566406 L 303.84375 73.332031 L 305.472656 74.964844 Z M 287.390625 93.082031 "/>
<path style=" stroke:none;fill-rule:nonzero;fill:rgb(42.352941%,38.823529%,100%);fill-opacity:1;" d="M 287.390625 149.070312 C 286.832031 147.417969 279.820312 141.792969 284.117188 140.847656 L 287.640625 145.554688 L 303.84375 129.320312 L 305.472656 130.953125 Z M 287.390625 149.070312 "/>
<path style=" stroke:none;fill-rule:nonzero;fill:rgb(24.705882%,23.921569%,33.72549%);fill-opacity:1;" d="M 341.472656 31.167969 C 341.472656 33.9375 339.230469 36.179688 336.472656 36.179688 C 333.710938 36.179688 331.472656 33.9375 331.472656 31.167969 C 331.472656 28.402344 333.710938 26.160156 336.472656 26.160156 C 339.230469 26.160156 341.472656 28.402344 341.472656 31.167969 Z M 341.472656 31.167969 "/>
<path style=" stroke:none;fill-rule:nonzero;fill:rgb(24.705882%,23.921569%,33.72549%);fill-opacity:1;" d="M 355.21875 30.667969 L 435.71875 30.667969 L 435.71875 31.671875 L 355.21875 31.671875 Z M 355.21875 30.667969 "/>
<path style=" stroke:none;fill-rule:nonzero;fill:rgb(24.705882%,23.921569%,33.72549%);fill-opacity:1;" d="M 341.472656 86.371094 C 341.472656 89.136719 339.230469 91.378906 336.472656 91.378906 C 333.710938 91.378906 331.472656 89.136719 331.472656 86.371094 C 331.472656 83.601562 333.710938 81.359375 336.472656 81.359375 C 339.230469 81.359375 341.472656 83.601562 341.472656 86.371094 Z M 341.472656 86.371094 "/>
<path style=" stroke:none;fill-rule:nonzero;fill:rgb(24.705882%,23.921569%,33.72549%);fill-opacity:1;" d="M 355.21875 85.867188 L 435.71875 85.867188 L 435.71875 86.871094 L 355.21875 86.871094 Z M 355.21875 85.867188 "/>
<path style=" stroke:none;fill-rule:nonzero;fill:rgb(24.705882%,23.921569%,33.72549%);fill-opacity:1;" d="M 341.472656 142.359375 C 341.472656 145.125 339.230469 147.367188 336.472656 147.367188 C 333.710938 147.367188 331.472656 145.125 331.472656 142.359375 C 331.472656 139.589844 333.710938 137.347656 336.472656 137.347656 C 339.230469 137.347656 341.472656 139.589844 341.472656 142.359375 Z M 341.472656 142.359375 "/>
<path style=" stroke:none;fill-rule:nonzero;fill:rgb(24.705882%,23.921569%,33.72549%);fill-opacity:1;" d="M 355.21875 141.855469 L 435.71875 141.855469 L 435.71875 142.859375 L 355.21875 142.859375 Z M 355.21875 141.855469 "/>
<path style=" stroke:none;fill-rule:nonzero;fill:rgb(24.705882%,23.921569%,33.72549%);fill-opacity:1;" d="M 300.019531 156.535156 L 275.019531 156.535156 L 275.019531 130.988281 L 292.019531 130.988281 L 292.019531 131.988281 L 276.019531 131.988281 L 276.019531 155.53125 L 299.019531 155.53125 L 299.019531 144.011719 L 300.019531 144.011719 Z M 300.019531 156.535156 "/>
<path style=" stroke:none;fill-rule:nonzero;fill:rgb(24.705882%,23.921569%,33.72549%);fill-opacity:1;" d="M 300.019531 100.429688 L 275.019531 100.429688 L 275.019531 74.882812 L 292.019531 74.882812 L 292.019531 75.882812 L 276.019531 75.882812 L 276.019531 99.429688 L 299.019531 99.429688 L 299.019531 87.90625 L 300.019531 87.90625 Z M 300.019531 100.429688 "/>
<path style=" stroke:none;fill-rule:nonzero;fill:rgb(24.705882%,23.921569%,33.72549%);fill-opacity:1;" d="M 300.019531 43.324219 L 275.019531 43.324219 L 275.019531 17.777344 L 292.019531 17.777344 L 292.019531 18.777344 L 276.019531 18.777344 L 276.019531 42.320312 L 299.019531 42.320312 L 299.019531 30.800781 L 300.019531 30.800781 Z M 300.019531 43.324219 "/>
</g>
</svg>
