<?xml version="1.0" encoding="UTF-8"?>
<svg xmlns="http://www.w3.org/2000/svg" xmlns:xlink="http://www.w3.org/1999/xlink" width="452pt" height="375pt" viewBox="0 0 452 375" version="1.1">
<g id="surface1">
<path style=" stroke:none;fill-rule:nonzero;fill:rgb(24.705882%,23.921569%,33.72549%);fill-opacity:1;" d="M 319.546875 84.890625 L 322.757812 84.890625 C 323.390625 84.890625 323.902344 85.40625 323.902344 86.039062 L 323.902344 129.109375 C 323.902344 129.742188 323.390625 130.253906 322.757812 130.253906 L 319.546875 130.253906 C 318.914062 130.253906 318.398438 129.742188 318.398438 129.109375 L 318.398438 86.039062 C 318.398438 85.40625 318.914062 84.890625 319.546875 84.890625 Z M 319.546875 84.890625 "/>
<path style=" stroke:none;fill-rule:nonzero;fill:rgb(24.705882%,23.921569%,33.72549%);fill-opacity:1;" d="M 156.792969 0 L 301.851562 0 C 312.628906 0 321.367188 8.738281 321.367188 19.519531 L 321.367188 354.707031 C 321.367188 365.488281 312.628906 374.226562 301.851562 374.226562 L 156.792969 374.226562 C 146.015625 374.226562 137.277344 365.488281 137.277344 354.707031 L 137.277344 19.519531 C 137.277344 8.738281 146.015625 0 156.792969 0 Z M 156.792969 0 "/>
<path style=" stroke:none;fill-rule:nonzero;fill:rgb(100%,100%,100%);fill-opacity:1;" d="M 295.746094 9.746094 L 274.628906 9.746094 L 274.628906 12.289062 C 274.628906 18.941406 269.234375 24.332031 262.585938 24.328125 L 195.425781 24.328125 C 188.777344 24.332031 183.382812 18.941406 183.382812 12.289062 L 183.382812 9.746094 L 163.609375 9.746094 C 155.535156 9.746094 148.992188 16.292969 148.992188 24.371094 L 148.992188 349.878906 C 148.992188 357.957031 155.535156 364.503906 163.609375 364.503906 L 295.746094 364.503906 C 303.820312 364.503906 310.367188 357.957031 310.367188 349.878906 L 310.367188 24.398438 C 310.371094 20.511719 308.835938 16.789062 306.09375 14.039062 C 303.351562 11.292969 299.628906 9.746094 295.746094 9.746094 Z M 295.746094 9.746094 "/>
<path style=" stroke:none;fill-rule:nonzero;fill:rgb(90.196078%,90.980392%,92.54902%);fill-opacity:1;" d="M 213.503906 11.175781 L 235.335938 11.175781 C 236.40625 11.175781 237.273438 12.042969 237.273438 13.113281 L 237.273438 14.457031 C 237.273438 15.527344 236.40625 16.394531 235.335938 16.394531 L 213.503906 16.394531 C 212.433594 16.394531 211.566406 15.527344 211.566406 14.457031 L 211.566406 13.113281 C 211.566406 12.042969 212.433594 11.175781 213.503906 11.175781 Z M 213.503906 11.175781 "/>
<path style=" stroke:none;fill-rule:nonzero;fill:rgb(90.196078%,90.980392%,92.54902%);fill-opacity:1;" d="M 247.085938 13.785156 C 247.085938 15.421875 245.757812 16.75 244.125 16.75 C 242.488281 16.75 241.160156 15.421875 241.160156 13.785156 C 241.160156 12.148438 242.488281 10.820312 244.125 10.820312 C 245.757812 10.820312 247.085938 12.148438 247.085938 13.785156 Z M 247.085938 13.785156 "/>
<path style=" stroke:none;fill-rule:nonzero;fill:rgb(100%,100%,100%);fill-opacity:1;" d="M 265.269531 191.707031 C 265.269531 210.945312 249.679688 226.539062 230.445312 226.539062 C 211.214844 226.539062 195.621094 210.945312 195.621094 191.707031 C 195.621094 172.46875 211.214844 156.875 230.445312 156.875 C 249.679688 156.875 265.269531 172.46875 265.269531 191.707031 Z M 265.269531 191.707031 "/>
<path style=" stroke:none;fill-rule:nonzero;fill:rgb(38.823529%,69.411765%,100%);fill-opacity:1;" d="M 276.25 186.84375 C 276.25 212.554688 255.410156 233.398438 229.703125 233.398438 C 204 233.398438 183.160156 212.550781 183.160156 186.839844 C 183.160156 161.128906 204 140.285156 229.707031 140.285156 C 255.414062 140.289062 276.25 161.132812 276.25 186.84375 Z M 224.328125 211.488281 L 258.855469 176.953125 C 259.417969 176.390625 259.734375 175.625 259.734375 174.828125 C 259.734375 174.03125 259.417969 173.265625 258.855469 172.703125 L 254.605469 168.484375 C 254.042969 167.921875 253.28125 167.601562 252.484375 167.601562 C 251.6875 167.601562 250.925781 167.921875 250.363281 168.484375 L 222.203125 196.652344 L 209.054688 183.46875 C 207.878906 182.300781 205.980469 182.300781 204.804688 183.46875 L 200.558594 187.742188 C 199.390625 188.917969 199.390625 190.816406 200.558594 191.992188 L 220.078125 211.511719 C 220.644531 212.074219 221.40625 212.394531 222.203125 212.394531 C 223 212.394531 223.765625 212.074219 224.328125 211.511719 Z M 224.328125 211.488281 "/>
<path style=" stroke:none;fill-rule:nonzero;fill:rgb(24.705882%,23.921569%,33.72549%);fill-opacity:1;" d="M 142.558594 73.777344 L 143.039062 73.777344 C 143.671875 73.777344 144.1875 74.289062 144.1875 74.921875 L 144.1875 86.054688 C 144.1875 86.6875 143.671875 87.203125 143.039062 87.203125 L 142.558594 87.203125 C 141.925781 87.203125 141.410156 86.6875 141.410156 86.054688 L 141.410156 74.921875 C 141.410156 74.289062 141.925781 73.777344 142.558594 73.777344 Z M 142.558594 73.777344 "/>
<path style=" stroke:none;fill-rule:nonzero;fill:rgb(24.705882%,23.921569%,33.72549%);fill-opacity:1;" d="M 142.457031 98.359375 L 143.289062 98.359375 C 143.925781 98.359375 144.4375 98.871094 144.4375 99.503906 L 144.4375 120.574219 C 144.4375 121.207031 143.925781 121.722656 143.289062 121.722656 L 142.457031 121.722656 C 141.824219 121.722656 141.3125 121.207031 141.3125 120.574219 L 141.3125 99.503906 C 141.3125 98.871094 141.824219 98.359375 142.457031 98.359375 Z M 142.457031 98.359375 "/>
<path style=" stroke:none;fill-rule:nonzero;fill:rgb(24.705882%,23.921569%,33.72549%);fill-opacity:1;" d="M 142.507812 129.898438 L 143.191406 129.898438 C 143.824219 129.898438 144.335938 130.410156 144.335938 131.042969 L 144.335938 152.316406 C 144.335938 152.949219 143.824219 153.460938 143.191406 153.460938 L 142.507812 153.460938 C 141.875 153.460938 141.359375 152.949219 141.359375 152.316406 L 141.359375 131.042969 C 141.359375 130.410156 141.875 129.898438 142.507812 129.898438 Z M 142.507812 129.898438 "/>
</g>
</svg>
